ISO-10303-21;
HEADER;
/* Generated by software containing ST-Developer
 * from STEP Tools, Inc. (www.steptools.com) 
 */

FILE_DESCRIPTION(
/* description */ (''),
/* implementation_level */ '2;1');

FILE_NAME(
/* name */ 'chassis.step',
/* time_stamp */ '2026-06-10T17:39:19-04:00',
/* author */ (''),
/* organization */ (''),
/* preprocessor_version */ 'ST-DEVELOPER v20.1',
/* originating_system */ 'Autodesk Translation Framework v15.8.0.0',
/* authorisation */ '');

FILE_SCHEMA (('AUTOMOTIVE_DESIGN { 1 0 10303 214 3 1 1 }'));
ENDSEC;

DATA;
#10=MECHANICAL_DESIGN_GEOMETRIC_PRESENTATION_REPRESENTATION('',(#13),#1013);
#11=SHAPE_REPRESENTATION_RELATIONSHIP('SRR','None',#1020,#12);
#12=ADVANCED_BREP_SHAPE_REPRESENTATION('',(#14),#1012);
#13=STYLED_ITEM('',(#1029),#14);
#14=MANIFOLD_SOLID_BREP('Body1',#621);
#15=FACE_BOUND('',#83,.T.);
#16=FACE_BOUND('',#84,.T.);
#17=FACE_BOUND('',#85,.T.);
#18=PLANE('',#638);
#19=PLANE('',#639);
#20=PLANE('',#645);
#21=PLANE('',#646);
#22=PLANE('',#649);
#23=PLANE('',#651);
#24=PLANE('',#653);
#25=PLANE('',#654);
#26=PLANE('',#655);
#27=PLANE('',#656);
#28=PLANE('',#657);
#29=PLANE('',#658);
#30=PLANE('',#659);
#31=PLANE('',#660);
#32=PLANE('',#661);
#33=PLANE('',#662);
#34=PLANE('',#663);
#35=PLANE('',#664);
#36=PLANE('',#665);
#37=PLANE('',#666);
#38=PLANE('',#667);
#39=PLANE('',#668);
#40=PLANE('',#669);
#41=PLANE('',#670);
#42=PLANE('',#671);
#43=PLANE('',#672);
#44=PLANE('',#673);
#45=PLANE('',#674);
#46=PLANE('',#675);
#47=FACE_OUTER_BOUND('',#80,.T.);
#48=FACE_OUTER_BOUND('',#81,.T.);
#49=FACE_OUTER_BOUND('',#82,.T.);
#50=FACE_OUTER_BOUND('',#86,.T.);
#51=FACE_OUTER_BOUND('',#87,.T.);
#52=FACE_OUTER_BOUND('',#88,.T.);
#53=FACE_OUTER_BOUND('',#89,.T.);
#54=FACE_OUTER_BOUND('',#90,.T.);
#55=FACE_OUTER_BOUND('',#91,.T.);
#56=FACE_OUTER_BOUND('',#92,.T.);
#57=FACE_OUTER_BOUND('',#93,.T.);
#58=FACE_OUTER_BOUND('',#94,.T.);
#59=FACE_OUTER_BOUND('',#95,.T.);
#60=FACE_OUTER_BOUND('',#96,.T.);
#61=FACE_OUTER_BOUND('',#97,.T.);
#62=FACE_OUTER_BOUND('',#98,.T.);
#63=FACE_OUTER_BOUND('',#99,.T.);
#64=FACE_OUTER_BOUND('',#100,.T.);
#65=FACE_OUTER_BOUND('',#101,.T.);
#66=FACE_OUTER_BOUND('',#102,.T.);
#67=FACE_OUTER_BOUND('',#103,.T.);
#68=FACE_OUTER_BOUND('',#104,.T.);
#69=FACE_OUTER_BOUND('',#105,.T.);
#70=FACE_OUTER_BOUND('',#106,.T.);
#71=FACE_OUTER_BOUND('',#107,.T.);
#72=FACE_OUTER_BOUND('',#108,.T.);
#73=FACE_OUTER_BOUND('',#109,.T.);
#74=FACE_OUTER_BOUND('',#110,.T.);
#75=FACE_OUTER_BOUND('',#111,.T.);
#76=FACE_OUTER_BOUND('',#112,.T.);
#77=FACE_OUTER_BOUND('',#113,.T.);
#78=FACE_OUTER_BOUND('',#114,.T.);
#79=FACE_OUTER_BOUND('',#115,.T.);
#80=EDGE_LOOP('',(#416,#417,#418,#419));
#81=EDGE_LOOP('',(#420,#421,#422,#423,#424,#425,#426,#427));
#82=EDGE_LOOP('',(#428,#429,#430,#431,#432,#433,#434,#435));
#83=EDGE_LOOP('',(#436,#437,#438,#439));
#84=EDGE_LOOP('',(#440,#441,#442,#443));
#85=EDGE_LOOP('',(#444,#445,#446,#447));
#86=EDGE_LOOP('',(#448,#449,#450,#451));
#87=EDGE_LOOP('',(#452,#453,#454,#455,#456,#457,#458,#459));
#88=EDGE_LOOP('',(#460,#461,#462,#463,#464,#465,#466,#467,#468,#469,#470,
#471,#472,#473,#474,#475));
#89=EDGE_LOOP('',(#476,#477,#478,#479));
#90=EDGE_LOOP('',(#480,#481,#482,#483));
#91=EDGE_LOOP('',(#484,#485,#486,#487));
#92=EDGE_LOOP('',(#488,#489,#490,#491));
#93=EDGE_LOOP('',(#492,#493,#494,#495));
#94=EDGE_LOOP('',(#496,#497,#498,#499));
#95=EDGE_LOOP('',(#500,#501,#502,#503));
#96=EDGE_LOOP('',(#504,#505,#506,#507));
#97=EDGE_LOOP('',(#508,#509,#510,#511));
#98=EDGE_LOOP('',(#512,#513,#514,#515));
#99=EDGE_LOOP('',(#516,#517,#518,#519));
#100=EDGE_LOOP('',(#520,#521,#522,#523));
#101=EDGE_LOOP('',(#524,#525,#526,#527));
#102=EDGE_LOOP('',(#528,#529,#530,#531));
#103=EDGE_LOOP('',(#532,#533,#534,#535));
#104=EDGE_LOOP('',(#536,#537,#538,#539));
#105=EDGE_LOOP('',(#540,#541,#542,#543));
#106=EDGE_LOOP('',(#544,#545,#546,#547));
#107=EDGE_LOOP('',(#548,#549,#550,#551));
#108=EDGE_LOOP('',(#552,#553,#554,#555));
#109=EDGE_LOOP('',(#556,#557,#558,#559));
#110=EDGE_LOOP('',(#560,#561,#562,#563));
#111=EDGE_LOOP('',(#564,#565,#566,#567));
#112=EDGE_LOOP('',(#568,#569,#570,#571));
#113=EDGE_LOOP('',(#572,#573,#574,#575));
#114=EDGE_LOOP('',(#576,#577,#578,#579));
#115=EDGE_LOOP('',(#580,#581,#582,#583));
#116=LINE('',#842,#192);
#117=LINE('',#845,#193);
#118=LINE('',#848,#194);
#119=LINE('',#850,#195);
#120=LINE('',#852,#196);
#121=LINE('',#854,#197);
#122=LINE('',#856,#198);
#123=LINE('',#858,#199);
#124=LINE('',#859,#200);
#125=LINE('',#862,#201);
#126=LINE('',#866,#202);
#127=LINE('',#870,#203);
#128=LINE('',#874,#204);
#129=LINE('',#876,#205);
#130=LINE('',#878,#206);
#131=LINE('',#879,#207);
#132=LINE('',#882,#208);
#133=LINE('',#884,#209);
#134=LINE('',#886,#210);
#135=LINE('',#887,#211);
#136=LINE('',#890,#212);
#137=LINE('',#892,#213);
#138=LINE('',#894,#214);
#139=LINE('',#895,#215);
#140=LINE('',#900,#216);
#141=LINE('',#901,#217);
#142=LINE('',#904,#218);
#143=LINE('',#906,#219);
#144=LINE('',#908,#220);
#145=LINE('',#910,#221);
#146=LINE('',#912,#222);
#147=LINE('',#913,#223);
#148=LINE('',#916,#224);
#149=LINE('',#918,#225);
#150=LINE('',#919,#226);
#151=LINE('',#923,#227);
#152=LINE('',#926,#228);
#153=LINE('',#928,#229);
#154=LINE('',#929,#230);
#155=LINE('',#930,#231);
#156=LINE('',#933,#232);
#157=LINE('',#935,#233);
#158=LINE('',#936,#234);
#159=LINE('',#938,#235);
#160=LINE('',#940,#236);
#161=LINE('',#945,#237);
#162=LINE('',#946,#238);
#163=LINE('',#949,#239);
#164=LINE('',#951,#240);
#165=LINE('',#952,#241);
#166=LINE('',#954,#242);
#167=LINE('',#958,#243);
#168=LINE('',#960,#244);
#169=LINE('',#962,#245);
#170=LINE('',#963,#246);
#171=LINE('',#966,#247);
#172=LINE('',#968,#248);
#173=LINE('',#969,#249);
#174=LINE('',#971,#250);
#175=LINE('',#972,#251);
#176=LINE('',#976,#252);
#177=LINE('',#977,#253);
#178=LINE('',#979,#254);
#179=LINE('',#980,#255);
#180=LINE('',#984,#256);
#181=LINE('',#988,#257);
#182=LINE('',#989,#258);
#183=LINE('',#991,#259);
#184=LINE('',#995,#260);
#185=LINE('',#997,#261);
#186=LINE('',#998,#262);
#187=LINE('',#1001,#263);
#188=LINE('',#1002,#264);
#189=LINE('',#1005,#265);
#190=LINE('',#1006,#266);
#191=LINE('',#1008,#267);
#192=VECTOR('',#682,1.);
#193=VECTOR('',#685,1.);
#194=VECTOR('',#688,1.);
#195=VECTOR('',#689,1.);
#196=VECTOR('',#690,1.);
#197=VECTOR('',#691,1.);
#198=VECTOR('',#692,1.);
#199=VECTOR('',#693,1.);
#200=VECTOR('',#694,1.);
#201=VECTOR('',#697,1.);
#202=VECTOR('',#700,1.);
#203=VECTOR('',#703,1.);
#204=VECTOR('',#706,1.);
#205=VECTOR('',#707,1.);
#206=VECTOR('',#708,1.);
#207=VECTOR('',#709,1.);
#208=VECTOR('',#710,1.);
#209=VECTOR('',#711,1.);
#210=VECTOR('',#712,1.);
#211=VECTOR('',#713,1.);
#212=VECTOR('',#714,1.);
#213=VECTOR('',#715,1.);
#214=VECTOR('',#716,1.);
#215=VECTOR('',#717,1.);
#216=VECTOR('',#722,1.);
#217=VECTOR('',#723,1.);
#218=VECTOR('',#726,1.);
#219=VECTOR('',#727,1.);
#220=VECTOR('',#728,1.);
#221=VECTOR('',#729,1.);
#222=VECTOR('',#730,1.);
#223=VECTOR('',#731,1.);
#224=VECTOR('',#734,1.);
#225=VECTOR('',#735,1.);
#226=VECTOR('',#736,1.);
#227=VECTOR('',#739,1.);
#228=VECTOR('',#742,1.);
#229=VECTOR('',#743,1.);
#230=VECTOR('',#744,1.);
#231=VECTOR('',#745,1.);
#232=VECTOR('',#748,1.);
#233=VECTOR('',#749,1.);
#234=VECTOR('',#750,1.);
#235=VECTOR('',#753,1.);
#236=VECTOR('',#756,1.);
#237=VECTOR('',#763,1.);
#238=VECTOR('',#764,1.);
#239=VECTOR('',#767,1.);
#240=VECTOR('',#768,1.);
#241=VECTOR('',#769,1.);
#242=VECTOR('',#772,1.);
#243=VECTOR('',#775,1.);
#244=VECTOR('',#776,1.);
#245=VECTOR('',#777,1.);
#246=VECTOR('',#778,1.);
#247=VECTOR('',#781,1.);
#248=VECTOR('',#782,1.);
#249=VECTOR('',#783,1.);
#250=VECTOR('',#786,1.);
#251=VECTOR('',#787,1.);
#252=VECTOR('',#794,1.);
#253=VECTOR('',#795,1.);
#254=VECTOR('',#798,1.);
#255=VECTOR('',#799,1.);
#256=VECTOR('',#806,1.);
#257=VECTOR('',#811,1.);
#258=VECTOR('',#812,1.);
#259=VECTOR('',#815,1.);
#260=VECTOR('',#820,1.);
#261=VECTOR('',#821,1.);
#262=VECTOR('',#822,1.);
#263=VECTOR('',#825,1.);
#264=VECTOR('',#826,1.);
#265=VECTOR('',#829,1.);
#266=VECTOR('',#830,1.);
#267=VECTOR('',#833,1.);
#268=CIRCLE('',#636,0.25);
#269=CIRCLE('',#637,0.25);
#270=CIRCLE('',#640,0.25);
#271=CIRCLE('',#641,1.);
#272=CIRCLE('',#642,1.);
#273=CIRCLE('',#644,0.25);
#274=CIRCLE('',#647,1.);
#275=CIRCLE('',#648,1.);
#276=VERTEX_POINT('',#838);
#277=VERTEX_POINT('',#839);
#278=VERTEX_POINT('',#841);
#279=VERTEX_POINT('',#843);
#280=VERTEX_POINT('',#847);
#281=VERTEX_POINT('',#849);
#282=VERTEX_POINT('',#851);
#283=VERTEX_POINT('',#853);
#284=VERTEX_POINT('',#855);
#285=VERTEX_POINT('',#857);
#286=VERTEX_POINT('',#861);
#287=VERTEX_POINT('',#863);
#288=VERTEX_POINT('',#865);
#289=VERTEX_POINT('',#867);
#290=VERTEX_POINT('',#869);
#291=VERTEX_POINT('',#872);
#292=VERTEX_POINT('',#873);
#293=VERTEX_POINT('',#875);
#294=VERTEX_POINT('',#877);
#295=VERTEX_POINT('',#880);
#296=VERTEX_POINT('',#881);
#297=VERTEX_POINT('',#883);
#298=VERTEX_POINT('',#885);
#299=VERTEX_POINT('',#888);
#300=VERTEX_POINT('',#889);
#301=VERTEX_POINT('',#891);
#302=VERTEX_POINT('',#893);
#303=VERTEX_POINT('',#897);
#304=VERTEX_POINT('',#898);
#305=VERTEX_POINT('',#903);
#306=VERTEX_POINT('',#905);
#307=VERTEX_POINT('',#907);
#308=VERTEX_POINT('',#909);
#309=VERTEX_POINT('',#911);
#310=VERTEX_POINT('',#915);
#311=VERTEX_POINT('',#917);
#312=VERTEX_POINT('',#920);
#313=VERTEX_POINT('',#922);
#314=VERTEX_POINT('',#925);
#315=VERTEX_POINT('',#927);
#316=VERTEX_POINT('',#932);
#317=VERTEX_POINT('',#934);
#318=VERTEX_POINT('',#944);
#319=VERTEX_POINT('',#948);
#320=VERTEX_POINT('',#950);
#321=VERTEX_POINT('',#956);
#322=VERTEX_POINT('',#957);
#323=VERTEX_POINT('',#959);
#324=VERTEX_POINT('',#961);
#325=VERTEX_POINT('',#965);
#326=VERTEX_POINT('',#967);
#327=VERTEX_POINT('',#987);
#328=VERTEX_POINT('',#994);
#329=VERTEX_POINT('',#996);
#330=VERTEX_POINT('',#1000);
#331=VERTEX_POINT('',#1004);
#332=EDGE_CURVE('',#276,#277,#268,.T.);
#333=EDGE_CURVE('',#277,#278,#116,.T.);
#334=EDGE_CURVE('',#278,#279,#269,.T.);
#335=EDGE_CURVE('',#279,#276,#117,.T.);
#336=EDGE_CURVE('',#280,#277,#118,.T.);
#337=EDGE_CURVE('',#281,#280,#119,.T.);
#338=EDGE_CURVE('',#282,#281,#120,.T.);
#339=EDGE_CURVE('',#283,#282,#121,.T.);
#340=EDGE_CURVE('',#284,#283,#122,.T.);
#341=EDGE_CURVE('',#285,#284,#123,.T.);
#342=EDGE_CURVE('',#278,#285,#124,.T.);
#343=EDGE_CURVE('',#276,#286,#125,.T.);
#344=EDGE_CURVE('',#287,#286,#270,.T.);
#345=EDGE_CURVE('',#287,#288,#126,.T.);
#346=EDGE_CURVE('',#289,#288,#271,.T.);
#347=EDGE_CURVE('',#289,#290,#127,.T.);
#348=EDGE_CURVE('',#280,#290,#272,.T.);
#349=EDGE_CURVE('',#291,#292,#128,.T.);
#350=EDGE_CURVE('',#292,#293,#129,.T.);
#351=EDGE_CURVE('',#293,#294,#130,.T.);
#352=EDGE_CURVE('',#294,#291,#131,.T.);
#353=EDGE_CURVE('',#295,#296,#132,.T.);
#354=EDGE_CURVE('',#296,#297,#133,.T.);
#355=EDGE_CURVE('',#297,#298,#134,.T.);
#356=EDGE_CURVE('',#298,#295,#135,.T.);
#357=EDGE_CURVE('',#299,#300,#136,.T.);
#358=EDGE_CURVE('',#301,#299,#137,.T.);
#359=EDGE_CURVE('',#302,#301,#138,.T.);
#360=EDGE_CURVE('',#300,#302,#139,.T.);
#361=EDGE_CURVE('',#303,#304,#273,.T.);
#362=EDGE_CURVE('',#304,#287,#140,.T.);
#363=EDGE_CURVE('',#286,#303,#141,.T.);
#364=EDGE_CURVE('',#305,#304,#142,.T.);
#365=EDGE_CURVE('',#306,#305,#143,.T.);
#366=EDGE_CURVE('',#307,#306,#144,.T.);
#367=EDGE_CURVE('',#308,#307,#145,.T.);
#368=EDGE_CURVE('',#309,#308,#146,.T.);
#369=EDGE_CURVE('',#288,#309,#147,.T.);
#370=EDGE_CURVE('',#285,#310,#148,.T.);
#371=EDGE_CURVE('',#310,#311,#149,.T.);
#372=EDGE_CURVE('',#311,#282,#150,.T.);
#373=EDGE_CURVE('',#312,#281,#274,.T.);
#374=EDGE_CURVE('',#312,#313,#151,.T.);
#375=EDGE_CURVE('',#309,#313,#275,.T.);
#376=EDGE_CURVE('',#308,#314,#152,.T.);
#377=EDGE_CURVE('',#314,#315,#153,.T.);
#378=EDGE_CURVE('',#315,#305,#154,.T.);
#379=EDGE_CURVE('',#303,#279,#155,.T.);
#380=EDGE_CURVE('',#298,#316,#156,.T.);
#381=EDGE_CURVE('',#316,#317,#157,.T.);
#382=EDGE_CURVE('',#295,#317,#158,.T.);
#383=EDGE_CURVE('',#290,#312,#159,.T.);
#384=EDGE_CURVE('',#313,#289,#160,.T.);
#385=EDGE_CURVE('',#318,#315,#161,.T.);
#386=EDGE_CURVE('',#318,#306,#162,.T.);
#387=EDGE_CURVE('',#319,#283,#163,.T.);
#388=EDGE_CURVE('',#320,#319,#164,.T.);
#389=EDGE_CURVE('',#284,#320,#165,.T.);
#390=EDGE_CURVE('',#311,#319,#166,.T.);
#391=EDGE_CURVE('',#321,#322,#167,.T.);
#392=EDGE_CURVE('',#323,#322,#168,.T.);
#393=EDGE_CURVE('',#324,#323,#169,.T.);
#394=EDGE_CURVE('',#321,#324,#170,.T.);
#395=EDGE_CURVE('',#316,#325,#171,.T.);
#396=EDGE_CURVE('',#326,#325,#172,.T.);
#397=EDGE_CURVE('',#317,#326,#173,.T.);
#398=EDGE_CURVE('',#325,#297,#174,.T.);
#399=EDGE_CURVE('',#296,#326,#175,.T.);
#400=EDGE_CURVE('',#292,#321,#176,.T.);
#401=EDGE_CURVE('',#291,#322,#177,.T.);
#402=EDGE_CURVE('',#293,#324,#178,.T.);
#403=EDGE_CURVE('',#294,#323,#179,.T.);
#404=EDGE_CURVE('',#310,#320,#180,.T.);
#405=EDGE_CURVE('',#314,#327,#181,.T.);
#406=EDGE_CURVE('',#327,#318,#182,.T.);
#407=EDGE_CURVE('',#307,#327,#183,.T.);
#408=EDGE_CURVE('',#299,#328,#184,.T.);
#409=EDGE_CURVE('',#328,#329,#185,.T.);
#410=EDGE_CURVE('',#301,#329,#186,.T.);
#411=EDGE_CURVE('',#330,#300,#187,.T.);
#412=EDGE_CURVE('',#330,#328,#188,.T.);
#413=EDGE_CURVE('',#331,#330,#189,.T.);
#414=EDGE_CURVE('',#329,#331,#190,.T.);
#415=EDGE_CURVE('',#302,#331,#191,.T.);
#416=ORIENTED_EDGE('',*,*,#332,.T.);
#417=ORIENTED_EDGE('',*,*,#333,.T.);
#418=ORIENTED_EDGE('',*,*,#334,.T.);
#419=ORIENTED_EDGE('',*,*,#335,.T.);
#420=ORIENTED_EDGE('',*,*,#333,.F.);
#421=ORIENTED_EDGE('',*,*,#336,.F.);
#422=ORIENTED_EDGE('',*,*,#337,.F.);
#423=ORIENTED_EDGE('',*,*,#338,.F.);
#424=ORIENTED_EDGE('',*,*,#339,.F.);
#425=ORIENTED_EDGE('',*,*,#340,.F.);
#426=ORIENTED_EDGE('',*,*,#341,.F.);
#427=ORIENTED_EDGE('',*,*,#342,.F.);
#428=ORIENTED_EDGE('',*,*,#332,.F.);
#429=ORIENTED_EDGE('',*,*,#343,.T.);
#430=ORIENTED_EDGE('',*,*,#344,.F.);
#431=ORIENTED_EDGE('',*,*,#345,.T.);
#432=ORIENTED_EDGE('',*,*,#346,.F.);
#433=ORIENTED_EDGE('',*,*,#347,.T.);
#434=ORIENTED_EDGE('',*,*,#348,.F.);
#435=ORIENTED_EDGE('',*,*,#336,.T.);
#436=ORIENTED_EDGE('',*,*,#349,.T.);
#437=ORIENTED_EDGE('',*,*,#350,.T.);
#438=ORIENTED_EDGE('',*,*,#351,.T.);
#439=ORIENTED_EDGE('',*,*,#352,.T.);
#440=ORIENTED_EDGE('',*,*,#353,.T.);
#441=ORIENTED_EDGE('',*,*,#354,.T.);
#442=ORIENTED_EDGE('',*,*,#355,.T.);
#443=ORIENTED_EDGE('',*,*,#356,.T.);
#444=ORIENTED_EDGE('',*,*,#357,.F.);
#445=ORIENTED_EDGE('',*,*,#358,.F.);
#446=ORIENTED_EDGE('',*,*,#359,.F.);
#447=ORIENTED_EDGE('',*,*,#360,.F.);
#448=ORIENTED_EDGE('',*,*,#361,.T.);
#449=ORIENTED_EDGE('',*,*,#362,.T.);
#450=ORIENTED_EDGE('',*,*,#344,.T.);
#451=ORIENTED_EDGE('',*,*,#363,.T.);
#452=ORIENTED_EDGE('',*,*,#362,.F.);
#453=ORIENTED_EDGE('',*,*,#364,.F.);
#454=ORIENTED_EDGE('',*,*,#365,.F.);
#455=ORIENTED_EDGE('',*,*,#366,.F.);
#456=ORIENTED_EDGE('',*,*,#367,.F.);
#457=ORIENTED_EDGE('',*,*,#368,.F.);
#458=ORIENTED_EDGE('',*,*,#369,.F.);
#459=ORIENTED_EDGE('',*,*,#345,.F.);
#460=ORIENTED_EDGE('',*,*,#334,.F.);
#461=ORIENTED_EDGE('',*,*,#342,.T.);
#462=ORIENTED_EDGE('',*,*,#370,.T.);
#463=ORIENTED_EDGE('',*,*,#371,.T.);
#464=ORIENTED_EDGE('',*,*,#372,.T.);
#465=ORIENTED_EDGE('',*,*,#338,.T.);
#466=ORIENTED_EDGE('',*,*,#373,.F.);
#467=ORIENTED_EDGE('',*,*,#374,.T.);
#468=ORIENTED_EDGE('',*,*,#375,.F.);
#469=ORIENTED_EDGE('',*,*,#368,.T.);
#470=ORIENTED_EDGE('',*,*,#376,.T.);
#471=ORIENTED_EDGE('',*,*,#377,.T.);
#472=ORIENTED_EDGE('',*,*,#378,.T.);
#473=ORIENTED_EDGE('',*,*,#364,.T.);
#474=ORIENTED_EDGE('',*,*,#361,.F.);
#475=ORIENTED_EDGE('',*,*,#379,.T.);
#476=ORIENTED_EDGE('',*,*,#380,.T.);
#477=ORIENTED_EDGE('',*,*,#381,.T.);
#478=ORIENTED_EDGE('',*,*,#382,.F.);
#479=ORIENTED_EDGE('',*,*,#356,.F.);
#480=ORIENTED_EDGE('',*,*,#348,.T.);
#481=ORIENTED_EDGE('',*,*,#383,.T.);
#482=ORIENTED_EDGE('',*,*,#373,.T.);
#483=ORIENTED_EDGE('',*,*,#337,.T.);
#484=ORIENTED_EDGE('',*,*,#383,.F.);
#485=ORIENTED_EDGE('',*,*,#347,.F.);
#486=ORIENTED_EDGE('',*,*,#384,.F.);
#487=ORIENTED_EDGE('',*,*,#374,.F.);
#488=ORIENTED_EDGE('',*,*,#375,.T.);
#489=ORIENTED_EDGE('',*,*,#384,.T.);
#490=ORIENTED_EDGE('',*,*,#346,.T.);
#491=ORIENTED_EDGE('',*,*,#369,.T.);
#492=ORIENTED_EDGE('',*,*,#335,.F.);
#493=ORIENTED_EDGE('',*,*,#379,.F.);
#494=ORIENTED_EDGE('',*,*,#363,.F.);
#495=ORIENTED_EDGE('',*,*,#343,.F.);
#496=ORIENTED_EDGE('',*,*,#365,.T.);
#497=ORIENTED_EDGE('',*,*,#378,.F.);
#498=ORIENTED_EDGE('',*,*,#385,.F.);
#499=ORIENTED_EDGE('',*,*,#386,.T.);
#500=ORIENTED_EDGE('',*,*,#340,.T.);
#501=ORIENTED_EDGE('',*,*,#387,.F.);
#502=ORIENTED_EDGE('',*,*,#388,.F.);
#503=ORIENTED_EDGE('',*,*,#389,.F.);
#504=ORIENTED_EDGE('',*,*,#339,.T.);
#505=ORIENTED_EDGE('',*,*,#372,.F.);
#506=ORIENTED_EDGE('',*,*,#390,.T.);
#507=ORIENTED_EDGE('',*,*,#387,.T.);
#508=ORIENTED_EDGE('',*,*,#391,.T.);
#509=ORIENTED_EDGE('',*,*,#392,.F.);
#510=ORIENTED_EDGE('',*,*,#393,.F.);
#511=ORIENTED_EDGE('',*,*,#394,.F.);
#512=ORIENTED_EDGE('',*,*,#395,.T.);
#513=ORIENTED_EDGE('',*,*,#396,.F.);
#514=ORIENTED_EDGE('',*,*,#397,.F.);
#515=ORIENTED_EDGE('',*,*,#381,.F.);
#516=ORIENTED_EDGE('',*,*,#398,.T.);
#517=ORIENTED_EDGE('',*,*,#354,.F.);
#518=ORIENTED_EDGE('',*,*,#399,.T.);
#519=ORIENTED_EDGE('',*,*,#396,.T.);
#520=ORIENTED_EDGE('',*,*,#355,.F.);
#521=ORIENTED_EDGE('',*,*,#398,.F.);
#522=ORIENTED_EDGE('',*,*,#395,.F.);
#523=ORIENTED_EDGE('',*,*,#380,.F.);
#524=ORIENTED_EDGE('',*,*,#353,.F.);
#525=ORIENTED_EDGE('',*,*,#382,.T.);
#526=ORIENTED_EDGE('',*,*,#397,.T.);
#527=ORIENTED_EDGE('',*,*,#399,.F.);
#528=ORIENTED_EDGE('',*,*,#391,.F.);
#529=ORIENTED_EDGE('',*,*,#400,.F.);
#530=ORIENTED_EDGE('',*,*,#349,.F.);
#531=ORIENTED_EDGE('',*,*,#401,.T.);
#532=ORIENTED_EDGE('',*,*,#351,.F.);
#533=ORIENTED_EDGE('',*,*,#402,.T.);
#534=ORIENTED_EDGE('',*,*,#393,.T.);
#535=ORIENTED_EDGE('',*,*,#403,.F.);
#536=ORIENTED_EDGE('',*,*,#350,.F.);
#537=ORIENTED_EDGE('',*,*,#400,.T.);
#538=ORIENTED_EDGE('',*,*,#394,.T.);
#539=ORIENTED_EDGE('',*,*,#402,.F.);
#540=ORIENTED_EDGE('',*,*,#352,.F.);
#541=ORIENTED_EDGE('',*,*,#403,.T.);
#542=ORIENTED_EDGE('',*,*,#392,.T.);
#543=ORIENTED_EDGE('',*,*,#401,.F.);
#544=ORIENTED_EDGE('',*,*,#404,.T.);
#545=ORIENTED_EDGE('',*,*,#388,.T.);
#546=ORIENTED_EDGE('',*,*,#390,.F.);
#547=ORIENTED_EDGE('',*,*,#371,.F.);
#548=ORIENTED_EDGE('',*,*,#341,.T.);
#549=ORIENTED_EDGE('',*,*,#389,.T.);
#550=ORIENTED_EDGE('',*,*,#404,.F.);
#551=ORIENTED_EDGE('',*,*,#370,.F.);
#552=ORIENTED_EDGE('',*,*,#405,.T.);
#553=ORIENTED_EDGE('',*,*,#406,.T.);
#554=ORIENTED_EDGE('',*,*,#385,.T.);
#555=ORIENTED_EDGE('',*,*,#377,.F.);
#556=ORIENTED_EDGE('',*,*,#367,.T.);
#557=ORIENTED_EDGE('',*,*,#407,.T.);
#558=ORIENTED_EDGE('',*,*,#405,.F.);
#559=ORIENTED_EDGE('',*,*,#376,.F.);
#560=ORIENTED_EDGE('',*,*,#366,.T.);
#561=ORIENTED_EDGE('',*,*,#386,.F.);
#562=ORIENTED_EDGE('',*,*,#406,.F.);
#563=ORIENTED_EDGE('',*,*,#407,.F.);
#564=ORIENTED_EDGE('',*,*,#358,.T.);
#565=ORIENTED_EDGE('',*,*,#408,.T.);
#566=ORIENTED_EDGE('',*,*,#409,.T.);
#567=ORIENTED_EDGE('',*,*,#410,.F.);
#568=ORIENTED_EDGE('',*,*,#357,.T.);
#569=ORIENTED_EDGE('',*,*,#411,.F.);
#570=ORIENTED_EDGE('',*,*,#412,.T.);
#571=ORIENTED_EDGE('',*,*,#408,.F.);
#572=ORIENTED_EDGE('',*,*,#413,.F.);
#573=ORIENTED_EDGE('',*,*,#414,.F.);
#574=ORIENTED_EDGE('',*,*,#409,.F.);
#575=ORIENTED_EDGE('',*,*,#412,.F.);
#576=ORIENTED_EDGE('',*,*,#360,.T.);
#577=ORIENTED_EDGE('',*,*,#415,.T.);
#578=ORIENTED_EDGE('',*,*,#413,.T.);
#579=ORIENTED_EDGE('',*,*,#411,.T.);
#580=ORIENTED_EDGE('',*,*,#359,.T.);
#581=ORIENTED_EDGE('',*,*,#410,.T.);
#582=ORIENTED_EDGE('',*,*,#414,.T.);
#583=ORIENTED_EDGE('',*,*,#415,.F.);
#584=CYLINDRICAL_SURFACE('',#635,0.25);
#585=CYLINDRICAL_SURFACE('',#643,0.25);
#586=CYLINDRICAL_SURFACE('',#650,1.);
#587=CYLINDRICAL_SURFACE('',#652,1.);
#588=ADVANCED_FACE('',(#47),#584,.T.);
#589=ADVANCED_FACE('',(#48),#18,.F.);
#590=ADVANCED_FACE('',(#49,#15,#16,#17),#19,.F.);
#591=ADVANCED_FACE('',(#50),#585,.T.);
#592=ADVANCED_FACE('',(#51),#20,.F.);
#593=ADVANCED_FACE('',(#52),#21,.F.);
#594=ADVANCED_FACE('',(#53),#22,.F.);
#595=ADVANCED_FACE('',(#54),#586,.T.);
#596=ADVANCED_FACE('',(#55),#23,.F.);
#597=ADVANCED_FACE('',(#56),#587,.T.);
#598=ADVANCED_FACE('',(#57),#24,.F.);
#599=ADVANCED_FACE('',(#58),#25,.F.);
#600=ADVANCED_FACE('',(#59),#26,.F.);
#601=ADVANCED_FACE('',(#60),#27,.F.);
#602=ADVANCED_FACE('',(#61),#28,.F.);
#603=ADVANCED_FACE('',(#62),#29,.F.);
#604=ADVANCED_FACE('',(#63),#30,.F.);
#605=ADVANCED_FACE('',(#64),#31,.T.);
#606=ADVANCED_FACE('',(#65),#32,.F.);
#607=ADVANCED_FACE('',(#66),#33,.F.);
#608=ADVANCED_FACE('',(#67),#34,.F.);
#609=ADVANCED_FACE('',(#68),#35,.F.);
#610=ADVANCED_FACE('',(#69),#36,.F.);
#611=ADVANCED_FACE('',(#70),#37,.F.);
#612=ADVANCED_FACE('',(#71),#38,.F.);
#613=ADVANCED_FACE('',(#72),#39,.F.);
#614=ADVANCED_FACE('',(#73),#40,.F.);
#615=ADVANCED_FACE('',(#74),#41,.F.);
#616=ADVANCED_FACE('',(#75),#42,.T.);
#617=ADVANCED_FACE('',(#76),#43,.T.);
#618=ADVANCED_FACE('',(#77),#44,.F.);
#619=ADVANCED_FACE('',(#78),#45,.T.);
#620=ADVANCED_FACE('',(#79),#46,.T.);
#621=CLOSED_SHELL('',(#588,#589,#590,#591,#592,#593,#594,#595,#596,#597,
#598,#599,#600,#601,#602,#603,#604,#605,#606,#607,#608,#609,#610,#611,#612,
#613,#614,#615,#616,#617,#618,#619,#620));
#622=DERIVED_UNIT_ELEMENT(#624,1.);
#623=DERIVED_UNIT_ELEMENT(#1015,-3.);
#624=(
MASS_UNIT()
NAMED_UNIT(*)
SI_UNIT(.KILO.,.GRAM.)
);
#625=DERIVED_UNIT((#622,#623));
#626=MEASURE_REPRESENTATION_ITEM('density measure',
POSITIVE_RATIO_MEASURE(7850.),#625);
#627=PROPERTY_DEFINITION_REPRESENTATION(#632,#629);
#628=PROPERTY_DEFINITION_REPRESENTATION(#633,#630);
#629=REPRESENTATION('material name',(#631),#1012);
#630=REPRESENTATION('density',(#626),#1012);
#631=DESCRIPTIVE_REPRESENTATION_ITEM('Steel','Steel');
#632=PROPERTY_DEFINITION('material property','material name',#1022);
#633=PROPERTY_DEFINITION('material property','density of part',#1022);
#634=AXIS2_PLACEMENT_3D('',#836,#676,#677);
#635=AXIS2_PLACEMENT_3D('',#837,#678,#679);
#636=AXIS2_PLACEMENT_3D('',#840,#680,#681);
#637=AXIS2_PLACEMENT_3D('',#844,#683,#684);
#638=AXIS2_PLACEMENT_3D('',#846,#686,#687);
#639=AXIS2_PLACEMENT_3D('',#860,#695,#696);
#640=AXIS2_PLACEMENT_3D('',#864,#698,#699);
#641=AXIS2_PLACEMENT_3D('',#868,#701,#702);
#642=AXIS2_PLACEMENT_3D('',#871,#704,#705);
#643=AXIS2_PLACEMENT_3D('',#896,#718,#719);
#644=AXIS2_PLACEMENT_3D('',#899,#720,#721);
#645=AXIS2_PLACEMENT_3D('',#902,#724,#725);
#646=AXIS2_PLACEMENT_3D('',#914,#732,#733);
#647=AXIS2_PLACEMENT_3D('',#921,#737,#738);
#648=AXIS2_PLACEMENT_3D('',#924,#740,#741);
#649=AXIS2_PLACEMENT_3D('',#931,#746,#747);
#650=AXIS2_PLACEMENT_3D('',#937,#751,#752);
#651=AXIS2_PLACEMENT_3D('',#939,#754,#755);
#652=AXIS2_PLACEMENT_3D('',#941,#757,#758);
#653=AXIS2_PLACEMENT_3D('',#942,#759,#760);
#654=AXIS2_PLACEMENT_3D('',#943,#761,#762);
#655=AXIS2_PLACEMENT_3D('',#947,#765,#766);
#656=AXIS2_PLACEMENT_3D('',#953,#770,#771);
#657=AXIS2_PLACEMENT_3D('',#955,#773,#774);
#658=AXIS2_PLACEMENT_3D('',#964,#779,#780);
#659=AXIS2_PLACEMENT_3D('',#970,#784,#785);
#660=AXIS2_PLACEMENT_3D('',#973,#788,#789);
#661=AXIS2_PLACEMENT_3D('',#974,#790,#791);
#662=AXIS2_PLACEMENT_3D('',#975,#792,#793);
#663=AXIS2_PLACEMENT_3D('',#978,#796,#797);
#664=AXIS2_PLACEMENT_3D('',#981,#800,#801);
#665=AXIS2_PLACEMENT_3D('',#982,#802,#803);
#666=AXIS2_PLACEMENT_3D('',#983,#804,#805);
#667=AXIS2_PLACEMENT_3D('',#985,#807,#808);
#668=AXIS2_PLACEMENT_3D('',#986,#809,#810);
#669=AXIS2_PLACEMENT_3D('',#990,#813,#814);
#670=AXIS2_PLACEMENT_3D('',#992,#816,#817);
#671=AXIS2_PLACEMENT_3D('',#993,#818,#819);
#672=AXIS2_PLACEMENT_3D('',#999,#823,#824);
#673=AXIS2_PLACEMENT_3D('',#1003,#827,#828);
#674=AXIS2_PLACEMENT_3D('',#1007,#831,#832);
#675=AXIS2_PLACEMENT_3D('',#1009,#834,#835);
#676=DIRECTION('axis',(0.,0.,1.));
#677=DIRECTION('refdir',(1.,0.,0.));
#678=DIRECTION('center_axis',(0.,0.,1.));
#679=DIRECTION('ref_axis',(0.707106781186548,0.707106781186548,0.));
#680=DIRECTION('center_axis',(0.,0.,-1.));
#681=DIRECTION('ref_axis',(0.707106781186548,0.707106781186548,0.));
#682=DIRECTION('',(0.,0.,-1.));
#683=DIRECTION('center_axis',(0.,0.,1.));
#684=DIRECTION('ref_axis',(0.707106781186548,0.707106781186548,0.));
#685=DIRECTION('',(0.,0.,1.));
#686=DIRECTION('center_axis',(-1.,0.,0.));
#687=DIRECTION('ref_axis',(0.,1.,0.));
#688=DIRECTION('',(0.,1.,0.));
#689=DIRECTION('',(0.,0.,1.));
#690=DIRECTION('',(0.,-1.,0.));
#691=DIRECTION('',(0.,0.,-1.));
#692=DIRECTION('',(0.,-1.,0.));
#693=DIRECTION('',(0.,0.,1.));
#694=DIRECTION('',(0.,-1.,0.));
#695=DIRECTION('center_axis',(0.,0.,-1.));
#696=DIRECTION('ref_axis',(-1.,0.,0.));
#697=DIRECTION('',(-1.,0.,0.));
#698=DIRECTION('center_axis',(0.,0.,-1.));
#699=DIRECTION('ref_axis',(-0.707106781186548,0.707106781186548,0.));
#700=DIRECTION('',(0.,-1.,0.));
#701=DIRECTION('center_axis',(0.,0.,-1.));
#702=DIRECTION('ref_axis',(-1.,0.,0.));
#703=DIRECTION('',(1.,0.,0.));
#704=DIRECTION('center_axis',(0.,0.,-1.));
#705=DIRECTION('ref_axis',(1.,0.,0.));
#706=DIRECTION('',(1.,0.,0.));
#707=DIRECTION('',(0.,-1.,0.));
#708=DIRECTION('',(-1.,0.,0.));
#709=DIRECTION('',(0.,1.,0.));
#710=DIRECTION('',(-1.,0.,0.));
#711=DIRECTION('',(0.,1.,0.));
#712=DIRECTION('',(1.,0.,0.));
#713=DIRECTION('',(0.,-1.,0.));
#714=DIRECTION('',(-1.,0.,0.));
#715=DIRECTION('',(0.,1.,0.));
#716=DIRECTION('',(1.,0.,0.));
#717=DIRECTION('',(0.,-1.,0.));
#718=DIRECTION('center_axis',(0.,0.,-1.));
#719=DIRECTION('ref_axis',(-0.707106781186548,0.707106781186548,0.));
#720=DIRECTION('center_axis',(0.,0.,1.));
#721=DIRECTION('ref_axis',(-0.707106781186548,0.707106781186548,0.));
#722=DIRECTION('',(0.,0.,1.));
#723=DIRECTION('',(0.,0.,-1.));
#724=DIRECTION('center_axis',(1.,0.,0.));
#725=DIRECTION('ref_axis',(0.,-1.,0.));
#726=DIRECTION('',(0.,1.,0.));
#727=DIRECTION('',(0.,0.,-1.));
#728=DIRECTION('',(0.,1.,0.));
#729=DIRECTION('',(0.,0.,1.));
#730=DIRECTION('',(0.,1.,0.));
#731=DIRECTION('',(0.,0.,-1.));
#732=DIRECTION('center_axis',(0.,0.,1.));
#733=DIRECTION('ref_axis',(1.,0.,0.));
#734=DIRECTION('',(-1.,0.,0.));
#735=DIRECTION('',(0.,-1.,0.));
#736=DIRECTION('',(1.,0.,0.));
#737=DIRECTION('center_axis',(0.,0.,1.));
#738=DIRECTION('ref_axis',(1.,0.,0.));
#739=DIRECTION('',(-1.,0.,0.));
#740=DIRECTION('center_axis',(0.,0.,1.));
#741=DIRECTION('ref_axis',(-1.,0.,0.));
#742=DIRECTION('',(1.,0.,0.));
#743=DIRECTION('',(0.,1.,0.));
#744=DIRECTION('',(-1.,0.,0.));
#745=DIRECTION('',(1.,0.,0.));
#746=DIRECTION('center_axis',(1.,0.,0.));
#747=DIRECTION('ref_axis',(0.,-1.,0.));
#748=DIRECTION('',(0.,0.,-1.));
#749=DIRECTION('',(0.,-1.,0.));
#750=DIRECTION('',(0.,0.,-1.));
#751=DIRECTION('center_axis',(0.,0.,-1.));
#752=DIRECTION('ref_axis',(1.,0.,0.));
#753=DIRECTION('',(0.,0.,-1.));
#754=DIRECTION('center_axis',(0.,1.,0.));
#755=DIRECTION('ref_axis',(-1.,0.,0.));
#756=DIRECTION('',(0.,0.,1.));
#757=DIRECTION('center_axis',(0.,0.,1.));
#758=DIRECTION('ref_axis',(-1.,0.,0.));
#759=DIRECTION('center_axis',(0.,-1.,0.));
#760=DIRECTION('ref_axis',(-1.,0.,0.));
#761=DIRECTION('center_axis',(0.,1.,0.));
#762=DIRECTION('ref_axis',(-1.,0.,0.));
#763=DIRECTION('',(0.,0.,-1.));
#764=DIRECTION('',(-1.,0.,0.));
#765=DIRECTION('center_axis',(0.,0.,1.));
#766=DIRECTION('ref_axis',(1.,0.,0.));
#767=DIRECTION('',(1.,0.,0.));
#768=DIRECTION('',(0.,-1.,0.));
#769=DIRECTION('',(-1.,0.,0.));
#770=DIRECTION('center_axis',(0.,-1.,0.));
#771=DIRECTION('ref_axis',(1.,0.,0.));
#772=DIRECTION('',(0.,0.,1.));
#773=DIRECTION('center_axis',(0.,0.,-1.));
#774=DIRECTION('ref_axis',(-1.,0.,0.));
#775=DIRECTION('',(-1.,0.,0.));
#776=DIRECTION('',(0.,1.,0.));
#777=DIRECTION('',(-1.,0.,0.));
#778=DIRECTION('',(0.,-1.,0.));
#779=DIRECTION('center_axis',(0.,0.,-1.));
#780=DIRECTION('ref_axis',(-1.,0.,0.));
#781=DIRECTION('',(-1.,0.,0.));
#782=DIRECTION('',(0.,1.,0.));
#783=DIRECTION('',(-1.,0.,0.));
#784=DIRECTION('center_axis',(-1.,0.,0.));
#785=DIRECTION('ref_axis',(0.,1.,0.));
#786=DIRECTION('',(0.,0.,1.));
#787=DIRECTION('',(0.,0.,-1.));
#788=DIRECTION('center_axis',(0.,-1.,0.));
#789=DIRECTION('ref_axis',(-1.,0.,0.));
#790=DIRECTION('center_axis',(0.,-1.,0.));
#791=DIRECTION('ref_axis',(-1.,0.,0.));
#792=DIRECTION('center_axis',(0.,1.,0.));
#793=DIRECTION('ref_axis',(1.,0.,0.));
#794=DIRECTION('',(0.,0.,-1.));
#795=DIRECTION('',(0.,0.,-1.));
#796=DIRECTION('center_axis',(0.,-1.,0.));
#797=DIRECTION('ref_axis',(-1.,0.,0.));
#798=DIRECTION('',(0.,0.,-1.));
#799=DIRECTION('',(0.,0.,-1.));
#800=DIRECTION('center_axis',(1.,0.,0.));
#801=DIRECTION('ref_axis',(0.,-1.,0.));
#802=DIRECTION('center_axis',(-1.,0.,0.));
#803=DIRECTION('ref_axis',(0.,1.,0.));
#804=DIRECTION('center_axis',(-1.,0.,0.));
#805=DIRECTION('ref_axis',(0.,-1.,0.));
#806=DIRECTION('',(0.,0.,1.));
#807=DIRECTION('center_axis',(0.,1.,0.));
#808=DIRECTION('ref_axis',(-1.,0.,0.));
#809=DIRECTION('center_axis',(1.,0.,0.));
#810=DIRECTION('ref_axis',(0.,1.,0.));
#811=DIRECTION('',(0.,0.,1.));
#812=DIRECTION('',(0.,1.,0.));
#813=DIRECTION('center_axis',(0.,-1.,0.));
#814=DIRECTION('ref_axis',(1.,0.,0.));
#815=DIRECTION('',(1.,0.,0.));
#816=DIRECTION('center_axis',(0.,0.,1.));
#817=DIRECTION('ref_axis',(1.,0.,0.));
#818=DIRECTION('center_axis',(-1.,0.,0.));
#819=DIRECTION('ref_axis',(0.,-1.,0.));
#820=DIRECTION('',(0.,0.,-1.));
#821=DIRECTION('',(0.,-1.,0.));
#822=DIRECTION('',(0.,0.,-1.));
#823=DIRECTION('center_axis',(0.,-1.,0.));
#824=DIRECTION('ref_axis',(1.,0.,0.));
#825=DIRECTION('',(0.,0.,1.));
#826=DIRECTION('',(1.,0.,0.));
#827=DIRECTION('center_axis',(0.,0.,-1.));
#828=DIRECTION('ref_axis',(-1.,0.,0.));
#829=DIRECTION('',(0.,1.,0.));
#830=DIRECTION('',(-1.,0.,0.));
#831=DIRECTION('center_axis',(1.,0.,0.));
#832=DIRECTION('ref_axis',(0.,1.,0.));
#833=DIRECTION('',(0.,0.,-1.));
#834=DIRECTION('center_axis',(0.,1.,0.));
#835=DIRECTION('ref_axis',(-1.,0.,0.));
#836=CARTESIAN_POINT('',(0.,0.,0.));
#837=CARTESIAN_POINT('Origin',(-5.55,3.59,0.7));
#838=CARTESIAN_POINT('',(-5.55,3.84,0.7));
#839=CARTESIAN_POINT('',(-5.3,3.59,0.7));
#840=CARTESIAN_POINT('Origin',(-5.55,3.59,0.7));
#841=CARTESIAN_POINT('',(-5.3,3.59,-0.5));
#842=CARTESIAN_POINT('',(-5.3,3.59,0.7));
#843=CARTESIAN_POINT('',(-5.55,3.84,-0.5));
#844=CARTESIAN_POINT('Origin',(-5.55,3.59,-0.5));
#845=CARTESIAN_POINT('',(-5.55,3.84,0.7));
#846=CARTESIAN_POINT('Origin',(-5.3,-9.68554052768615,0.7));
#847=CARTESIAN_POINT('',(-5.3,-7.43531464612152,0.7));
#848=CARTESIAN_POINT('',(-5.3,-5.71777026384307,0.7));
#849=CARTESIAN_POINT('',(-5.3,-7.43531464612152,-0.5));
#850=CARTESIAN_POINT('',(-5.3,-7.43531464612152,0.7));
#851=CARTESIAN_POINT('',(-5.3,-5.13036207056446,-0.5));
#852=CARTESIAN_POINT('',(-5.3,-5.71777026384307,-0.5));
#853=CARTESIAN_POINT('',(-5.3,-5.13036207056446,0.1));
#854=CARTESIAN_POINT('',(-5.3,-5.13036207056446,0.35));
#855=CARTESIAN_POINT('',(-5.3,-3.83036207056446,0.1));
#856=CARTESIAN_POINT('',(-5.3,-7.0829512991253,0.1));
#857=CARTESIAN_POINT('',(-5.3,-3.83036207056446,-0.5));
#858=CARTESIAN_POINT('',(-5.3,-3.83036207056446,0.35));
#859=CARTESIAN_POINT('',(-5.3,-5.71777026384307,-0.5));
#860=CARTESIAN_POINT('Origin',(-8.5,-1.75,0.7));
#861=CARTESIAN_POINT('',(-11.45,3.84,0.7));
#862=CARTESIAN_POINT('',(-6.81924474004726,3.84,0.7));
#863=CARTESIAN_POINT('',(-11.7,3.59,0.7));
#864=CARTESIAN_POINT('Origin',(-11.45,3.59,0.7));
#865=CARTESIAN_POINT('',(-11.7,-7.43531464612152,0.7));
#866=CARTESIAN_POINT('',(-11.7,1.125,0.7));
#867=CARTESIAN_POINT('',(-10.7,-8.43531464612152,0.7));
#868=CARTESIAN_POINT('Origin',(-10.7,-7.43531464612152,0.7));
#869=CARTESIAN_POINT('',(-6.3,-8.43531464612152,0.7));
#870=CARTESIAN_POINT('',(-6.89917084608901,-8.43531464612152,0.7));
#871=CARTESIAN_POINT('Origin',(-6.3,-7.43531464612152,0.7));
#872=CARTESIAN_POINT('',(-9.55000012665987,-1.85000004023314,0.7));
#873=CARTESIAN_POINT('',(-7.45000012665987,-1.85000004023314,0.7));
#874=CARTESIAN_POINT('',(-9.35,-1.85000004023314,0.7));
#875=CARTESIAN_POINT('',(-7.45000012665987,-3.55000004023314,0.7));
#876=CARTESIAN_POINT('',(-7.45000012665987,-1.80000002011657,0.7));
#877=CARTESIAN_POINT('',(-9.55000012665987,-3.55000004023314,0.7));
#878=CARTESIAN_POINT('',(-7.97500006332993,-3.55000004023313,0.7));
#879=CARTESIAN_POINT('',(-9.55000012665987,-2.65000002011657,0.7));
#880=CARTESIAN_POINT('',(-5.5,-1.64,0.7));
#881=CARTESIAN_POINT('',(-11.5,-1.64,0.7));
#882=CARTESIAN_POINT('',(-7.65,-1.64,0.7));
#883=CARTESIAN_POINT('',(-11.5,3.66,0.7));
#884=CARTESIAN_POINT('',(-11.5,-1.695,0.7));
#885=CARTESIAN_POINT('',(-5.5,3.66,0.7));
#886=CARTESIAN_POINT('',(-11.5,3.66,0.7));
#887=CARTESIAN_POINT('',(-5.5,-1.125,0.7));
#888=CARTESIAN_POINT('',(-6.26,-3.76,0.7));
#889=CARTESIAN_POINT('',(-10.74,-3.76,0.7));
#890=CARTESIAN_POINT('',(-9.62,-3.76,0.7));
#891=CARTESIAN_POINT('',(-6.26,-8.24,0.7));
#892=CARTESIAN_POINT('',(-6.26,-2.755,0.7));
#893=CARTESIAN_POINT('',(-10.74,-8.24,0.7));
#894=CARTESIAN_POINT('',(-7.38,-8.24,0.7));
#895=CARTESIAN_POINT('',(-10.74,-4.995,0.7));
#896=CARTESIAN_POINT('Origin',(-11.45,3.59,0.7));
#897=CARTESIAN_POINT('',(-11.45,3.84,-0.5));
#898=CARTESIAN_POINT('',(-11.7,3.59,-0.5));
#899=CARTESIAN_POINT('Origin',(-11.45,3.59,-0.5));
#900=CARTESIAN_POINT('',(-11.7,3.59,0.7));
#901=CARTESIAN_POINT('',(-11.45,3.84,0.7));
#902=CARTESIAN_POINT('Origin',(-11.7,4.,0.7));
#903=CARTESIAN_POINT('',(-11.7,-3.83036207056446,-0.5));
#904=CARTESIAN_POINT('',(-11.7,1.125,-0.5));
#905=CARTESIAN_POINT('',(-11.7,-3.83036207056446,0.1));
#906=CARTESIAN_POINT('',(-11.7,-3.83036207056446,0.35));
#907=CARTESIAN_POINT('',(-11.7,-5.13036207056446,0.1));
#908=CARTESIAN_POINT('',(-11.7,-0.240181035282228,0.1));
#909=CARTESIAN_POINT('',(-11.7,-5.13036207056446,-0.5));
#910=CARTESIAN_POINT('',(-11.7,-5.13036207056446,0.35));
#911=CARTESIAN_POINT('',(-11.7,-7.43531464612152,-0.5));
#912=CARTESIAN_POINT('',(-11.7,1.125,-0.5));
#913=CARTESIAN_POINT('',(-11.7,-7.43531464612152,0.7));
#914=CARTESIAN_POINT('Origin',(-8.5,-1.75,-0.5));
#915=CARTESIAN_POINT('',(-7.5,-3.83036207056446,-0.5));
#916=CARTESIAN_POINT('',(-6.75,-3.83036207056446,-0.5));
#917=CARTESIAN_POINT('',(-7.5,-5.13036207056446,-0.5));
#918=CARTESIAN_POINT('',(-7.5,-2.79018103528223,-0.5));
#919=CARTESIAN_POINT('',(-8.,-5.13036207056446,-0.5));
#920=CARTESIAN_POINT('',(-6.3,-8.43531464612152,-0.5));
#921=CARTESIAN_POINT('Origin',(-6.3,-7.43531464612152,-0.5));
#922=CARTESIAN_POINT('',(-10.7,-8.43531464612152,-0.5));
#923=CARTESIAN_POINT('',(-6.89917084608901,-8.43531464612152,-0.5));
#924=CARTESIAN_POINT('Origin',(-10.7,-7.43531464612152,-0.5));
#925=CARTESIAN_POINT('',(-9.5,-5.13036207056446,-0.5));
#926=CARTESIAN_POINT('',(-10.25,-5.13036207056446,-0.5));
#927=CARTESIAN_POINT('',(-9.5,-3.83036207056446,-0.5));
#928=CARTESIAN_POINT('',(-9.5,-3.44018103528223,-0.5));
#929=CARTESIAN_POINT('',(-9.,-3.83036207056446,-0.5));
#930=CARTESIAN_POINT('',(-6.81924474004726,3.84,-0.5));
#931=CARTESIAN_POINT('Origin',(-5.5,4.8,0.7));
#932=CARTESIAN_POINT('',(-5.5,3.66,-0.2));
#933=CARTESIAN_POINT('',(-5.5,3.66,0.7));
#934=CARTESIAN_POINT('',(-5.5,-1.64,-0.2));
#935=CARTESIAN_POINT('',(-5.5,-1.64,-0.2));
#936=CARTESIAN_POINT('',(-5.5,-1.64,0.7));
#937=CARTESIAN_POINT('Origin',(-6.3,-7.43531464612152,0.7));
#938=CARTESIAN_POINT('',(-6.3,-8.43531464612152,0.7));
#939=CARTESIAN_POINT('Origin',(-5.29834169217802,-8.43531464612152,0.));
#940=CARTESIAN_POINT('',(-10.7,-8.43531464612152,0.7));
#941=CARTESIAN_POINT('Origin',(-10.7,-7.43531464612152,0.7));
#942=CARTESIAN_POINT('Origin',(-5.13848948009451,3.84,0.7));
#943=CARTESIAN_POINT('Origin',(-9.5,-3.83036207056446,0.));
#944=CARTESIAN_POINT('',(-9.5,-3.83036207056446,0.1));
#945=CARTESIAN_POINT('',(-9.5,-3.83036207056446,0.));
#946=CARTESIAN_POINT('',(-9.5,-3.83036207056446,0.1));
#947=CARTESIAN_POINT('Origin',(-6.25,-4.48036207056446,0.1));
#948=CARTESIAN_POINT('',(-7.5,-5.13036207056446,0.1));
#949=CARTESIAN_POINT('',(-5.,-5.13036207056446,0.1));
#950=CARTESIAN_POINT('',(-7.5,-3.83036207056446,0.1));
#951=CARTESIAN_POINT('',(-7.5,-5.13036207056446,0.1));
#952=CARTESIAN_POINT('',(-7.5,-3.83036207056446,0.1));
#953=CARTESIAN_POINT('Origin',(-7.5,-5.13036207056446,0.));
#954=CARTESIAN_POINT('',(-7.5,-5.13036207056446,0.));
#955=CARTESIAN_POINT('Origin',(-8.5,-2.,0.4));
#956=CARTESIAN_POINT('',(-7.45000012665987,-1.85000004023314,0.4));
#957=CARTESIAN_POINT('',(-9.55000012665987,-1.85000004023314,0.4));
#958=CARTESIAN_POINT('',(-8.075,-1.85000004023314,0.4));
#959=CARTESIAN_POINT('',(-9.55000012665987,-3.55000004023314,0.4));
#960=CARTESIAN_POINT('',(-9.55000012665987,-1.85000004023314,0.4));
#961=CARTESIAN_POINT('',(-7.45000012665987,-3.55000004023314,0.4));
#962=CARTESIAN_POINT('',(-9.55000012665987,-3.55000004023314,0.4));
#963=CARTESIAN_POINT('',(-7.45000012665987,-3.55000004023314,0.4));
#964=CARTESIAN_POINT('Origin',(-8.5,2.15,-0.2));
#965=CARTESIAN_POINT('',(-11.5,3.66,-0.2));
#966=CARTESIAN_POINT('',(-8.5,3.66,-0.2));
#967=CARTESIAN_POINT('',(-11.5,-1.64,-0.2));
#968=CARTESIAN_POINT('',(-11.5,4.8,-0.2));
#969=CARTESIAN_POINT('',(-11.5,-1.64,-0.2));
#970=CARTESIAN_POINT('Origin',(-11.5,-0.5,0.7));
#971=CARTESIAN_POINT('',(-11.5,3.66,0.7));
#972=CARTESIAN_POINT('',(-11.5,-1.64,0.7));
#973=CARTESIAN_POINT('Origin',(-5.5,3.66,0.7));
#974=CARTESIAN_POINT('Origin',(-5.5,-1.64,0.7));
#975=CARTESIAN_POINT('Origin',(-9.55000012665987,-1.85000004023314,0.7));
#976=CARTESIAN_POINT('',(-7.45000012665987,-1.85000004023314,0.7));
#977=CARTESIAN_POINT('',(-9.55000012665987,-1.85000004023314,0.7));
#978=CARTESIAN_POINT('Origin',(-7.45000012665987,-3.55000004023314,0.7));
#979=CARTESIAN_POINT('',(-7.45000012665987,-3.55000004023314,0.7));
#980=CARTESIAN_POINT('',(-9.55000012665987,-3.55000004023314,0.7));
#981=CARTESIAN_POINT('Origin',(-7.45000012665987,-1.85000004023314,0.7));
#982=CARTESIAN_POINT('Origin',(-9.55000012665987,-3.55000004023314,0.7));
#983=CARTESIAN_POINT('Origin',(-7.5,-3.83036207056446,0.));
#984=CARTESIAN_POINT('',(-7.5,-3.83036207056446,0.));
#985=CARTESIAN_POINT('Origin',(-5.,-3.83036207056446,0.));
#986=CARTESIAN_POINT('Origin',(-9.5,-5.13036207056446,0.));
#987=CARTESIAN_POINT('',(-9.5,-5.13036207056446,0.1));
#988=CARTESIAN_POINT('',(-9.5,-5.13036207056446,0.));
#989=CARTESIAN_POINT('',(-9.5,-5.13036207056446,0.1));
#990=CARTESIAN_POINT('Origin',(-12.,-5.13036207056446,0.));
#991=CARTESIAN_POINT('',(-12.,-5.13036207056446,0.1));
#992=CARTESIAN_POINT('Origin',(-10.75,-4.48036207056446,0.1));
#993=CARTESIAN_POINT('Origin',(-6.26,-3.76,0.4));
#994=CARTESIAN_POINT('',(-6.26,-3.76,0.2));
#995=CARTESIAN_POINT('',(-6.26,-3.76,0.4));
#996=CARTESIAN_POINT('',(-6.26,-8.24,0.2));
#997=CARTESIAN_POINT('',(-6.26,-2.755,0.2));
#998=CARTESIAN_POINT('',(-6.26,-8.24,0.4));
#999=CARTESIAN_POINT('Origin',(-10.74,-3.76,0.4));
#1000=CARTESIAN_POINT('',(-10.74,-3.76,0.2));
#1001=CARTESIAN_POINT('',(-10.74,-3.76,0.4));
#1002=CARTESIAN_POINT('',(-9.62,-3.76,0.2));
#1003=CARTESIAN_POINT('Origin',(-8.5,-1.75,0.2));
#1004=CARTESIAN_POINT('',(-10.74,-8.24,0.2));
#1005=CARTESIAN_POINT('',(-10.74,-4.995,0.2));
#1006=CARTESIAN_POINT('',(-7.38,-8.24,0.2));
#1007=CARTESIAN_POINT('Origin',(-10.74,-8.24,0.4));
#1008=CARTESIAN_POINT('',(-10.74,-8.24,0.4));
#1009=CARTESIAN_POINT('Origin',(-6.26,-8.24,0.4));
#1010=UNCERTAINTY_MEASURE_WITH_UNIT(LENGTH_MEASURE(0.001),#1014,
'DISTANCE_ACCURACY_VALUE',
'Maximum model space distance between geometric entities at asserted c
onnectivities');
#1011=UNCERTAINTY_MEASURE_WITH_UNIT(LENGTH_MEASURE(0.001),#1014,
'DISTANCE_ACCURACY_VALUE',
'Maximum model space distance between geometric entities at asserted c
onnectivities');
#1012=(
GEOMETRIC_REPRESENTATION_CONTEXT(3)
GLOBAL_UNCERTAINTY_ASSIGNED_CONTEXT((#1010))
GLOBAL_UNIT_ASSIGNED_CONTEXT((#1014,#1016,#1017))
REPRESENTATION_CONTEXT('','3D')
);
#1013=(
GEOMETRIC_REPRESENTATION_CONTEXT(3)
GLOBAL_UNCERTAINTY_ASSIGNED_CONTEXT((#1011))
GLOBAL_UNIT_ASSIGNED_CONTEXT((#1014,#1016,#1017))
REPRESENTATION_CONTEXT('','3D')
);
#1014=(
LENGTH_UNIT()
NAMED_UNIT(*)
SI_UNIT(.CENTI.,.METRE.)
);
#1015=(
LENGTH_UNIT()
NAMED_UNIT(*)
SI_UNIT($,.METRE.)
);
#1016=(
NAMED_UNIT(*)
PLANE_ANGLE_UNIT()
SI_UNIT($,.RADIAN.)
);
#1017=(
NAMED_UNIT(*)
SI_UNIT($,.STERADIAN.)
SOLID_ANGLE_UNIT()
);
#1018=SHAPE_DEFINITION_REPRESENTATION(#1019,#1020);
#1019=PRODUCT_DEFINITION_SHAPE('',$,#1022);
#1020=SHAPE_REPRESENTATION('',(#634),#1012);
#1021=PRODUCT_DEFINITION_CONTEXT('part definition',#1026,'design');
#1022=PRODUCT_DEFINITION('chassis','chassis v1',#1023,#1021);
#1023=PRODUCT_DEFINITION_FORMATION('',$,#1028);
#1024=PRODUCT_RELATED_PRODUCT_CATEGORY('chassis v1','chassis v1',(#1028));
#1025=APPLICATION_PROTOCOL_DEFINITION('international standard',
'automotive_design',2009,#1026);
#1026=APPLICATION_CONTEXT(
'Core Data for Automotive Mechanical Design Process');
#1027=PRODUCT_CONTEXT('part definition',#1026,'mechanical');
#1028=PRODUCT('chassis','chassis v1',$,(#1027));
#1029=PRESENTATION_STYLE_ASSIGNMENT((#1030));
#1030=SURFACE_STYLE_USAGE(.BOTH.,#1031);
#1031=SURFACE_SIDE_STYLE('',(#1032));
#1032=SURFACE_STYLE_FILL_AREA(#1033);
#1033=FILL_AREA_STYLE('Steel - Satin',(#1034));
#1034=FILL_AREA_STYLE_COLOUR('Steel - Satin',#1035);
#1035=COLOUR_RGB('Steel - Satin',0.627450980392157,0.627450980392157,0.627450980392157);
ENDSEC;
END-ISO-10303-21;
