ISO-10303-21;
HEADER;
/* Generated by software containing ST-Developer
 * from STEP Tools, Inc. (www.steptools.com) 
 */

FILE_DESCRIPTION(
/* description */ (''),
/* implementation_level */ '2;1');

FILE_NAME(
/* name */ 'wheel_5cm.step',
/* time_stamp */ '2026-06-10T17:44:39-04:00',
/* author */ (''),
/* organization */ (''),
/* preprocessor_version */ 'ST-DEVELOPER v20.1',
/* originating_system */ 'Autodesk Translation Framework v15.8.0.0',
/* authorisation */ '');

FILE_SCHEMA (('AUTOMOTIVE_DESIGN { 1 0 10303 214 3 1 1 }'));
ENDSEC;

DATA;
#10=MECHANICAL_DESIGN_GEOMETRIC_PRESENTATION_REPRESENTATION('',(#13),#514);
#11=SHAPE_REPRESENTATION_RELATIONSHIP('SRR','None',#520,#12);
#12=ADVANCED_BREP_SHAPE_REPRESENTATION('',(#14),#513);
#13=STYLED_ITEM('',(#529),#14);
#14=MANIFOLD_SOLID_BREP('Wheel 1',#270);
#15=(
BOUNDED_SURFACE()
B_SPLINE_SURFACE(1,2,((#435,#436,#437,#438,#439,#440,#441,#442,#443),(#444,
#445,#446,#447,#448,#449,#450,#451,#452)),.UNSPECIFIED.,.F.,.T.,.F.)
B_SPLINE_SURFACE_WITH_KNOTS((2,2),(3,2,2,2,3),(-2.44261570670754E-14,0.666666666666661),
(-3.14159265358979,-1.5707963267949,0.,1.5707963267949,3.14159265358979),
 .UNSPECIFIED.)
GEOMETRIC_REPRESENTATION_ITEM()
RATIONAL_B_SPLINE_SURFACE(((1.,0.707106781186548,1.,0.707106781186548,1.,
0.707106781186548,1.,0.707106781186548,1.),(1.,0.707106781186548,1.,0.707106781186548,
1.,0.707106781186548,1.,0.707106781186548,1.)))
REPRESENTATION_ITEM('')
SURFACE()
);
#16=(
BOUNDED_SURFACE()
B_SPLINE_SURFACE(1,2,((#454,#455,#456,#457,#458,#459,#460,#461,#462),(#463,
#464,#465,#466,#467,#468,#469,#470,#471)),.UNSPECIFIED.,.F.,.T.,.F.)
B_SPLINE_SURFACE_WITH_KNOTS((2,2),(3,2,2,2,3),(3.24892918744696E-15,0.666666666666687),
(-3.14159265358979,-1.5707963267949,0.,1.5707963267949,3.14159265358979),
 .UNSPECIFIED.)
GEOMETRIC_REPRESENTATION_ITEM()
RATIONAL_B_SPLINE_SURFACE(((1.,0.707106781186548,1.,0.707106781186548,1.,
0.707106781186548,1.,0.707106781186548,1.),(1.,0.707106781186548,1.,0.707106781186548,
1.,0.707106781186548,1.,0.707106781186548,1.)))
REPRESENTATION_ITEM('')
SURFACE()
);
#17=(
BOUNDED_SURFACE()
B_SPLINE_SURFACE(1,2,((#473,#474,#475,#476,#477,#478,#479,#480,#481),(#482,
#483,#484,#485,#486,#487,#488,#489,#490)),.UNSPECIFIED.,.F.,.T.,.F.)
B_SPLINE_SURFACE_WITH_KNOTS((2,2),(3,2,2,2,3),(-1.42185797333222E-14,0.666666666666669),
(-3.14159265358979,-1.5707963267949,0.,1.5707963267949,3.14159265358979),
 .UNSPECIFIED.)
GEOMETRIC_REPRESENTATION_ITEM()
RATIONAL_B_SPLINE_SURFACE(((1.,0.707106781186548,1.,0.707106781186548,1.,
0.707106781186548,1.,0.707106781186548,1.),(1.,0.707106781186548,1.,0.707106781186548,
1.,0.707106781186548,1.,0.707106781186548,1.)))
REPRESENTATION_ITEM('')
SURFACE()
);
#18=(
BOUNDED_SURFACE()
B_SPLINE_SURFACE(1,2,((#492,#493,#494,#495,#496,#497,#498,#499,#500),(#501,
#502,#503,#504,#505,#506,#507,#508,#509)),.UNSPECIFIED.,.F.,.T.,.F.)
B_SPLINE_SURFACE_WITH_KNOTS((2,2),(3,2,2,2,3),(7.84432551536249E-15,0.666666666666693),
(-3.14159265358979,-1.5707963267949,0.,1.5707963267949,3.14159265358979),
 .UNSPECIFIED.)
GEOMETRIC_REPRESENTATION_ITEM()
RATIONAL_B_SPLINE_SURFACE(((1.,0.707106781186548,1.,0.707106781186548,1.,
0.707106781186548,1.,0.707106781186548,1.),(1.,0.707106781186548,1.,0.707106781186548,
1.,0.707106781186548,1.,0.707106781186548,1.)))
REPRESENTATION_ITEM('')
SURFACE()
);
#19=ELLIPSE('',#280,0.75,0.375);
#20=ELLIPSE('',#281,0.75,0.375);
#21=ELLIPSE('',#282,0.75,0.375);
#22=ELLIPSE('',#283,0.75,0.375);
#23=ELLIPSE('',#297,0.75,0.375);
#24=ELLIPSE('',#298,0.75,0.375);
#25=ELLIPSE('',#299,0.75,0.375);
#26=ELLIPSE('',#300,0.75,0.375);
#27=FACE_BOUND('',#80,.T.);
#28=FACE_BOUND('',#81,.T.);
#29=FACE_BOUND('',#82,.T.);
#30=FACE_BOUND('',#83,.T.);
#31=FACE_BOUND('',#84,.T.);
#32=FACE_BOUND('',#85,.T.);
#33=FACE_BOUND('',#86,.T.);
#34=FACE_BOUND('',#87,.T.);
#35=FACE_BOUND('',#88,.T.);
#36=FACE_BOUND('',#94,.T.);
#37=FACE_BOUND('',#95,.T.);
#38=FACE_BOUND('',#96,.T.);
#39=FACE_BOUND('',#97,.T.);
#40=FACE_BOUND('',#98,.T.);
#41=FACE_BOUND('',#99,.T.);
#42=FACE_BOUND('',#100,.T.);
#43=FACE_BOUND('',#101,.T.);
#44=FACE_BOUND('',#102,.T.);
#45=CIRCLE('',#274,0.165);
#46=CIRCLE('',#275,0.165);
#47=CIRCLE('',#277,2.425);
#48=CIRCLE('',#278,2.425);
#49=CIRCLE('',#284,0.4);
#50=CIRCLE('',#285,0.4);
#51=CIRCLE('',#286,0.4);
#52=CIRCLE('',#287,0.4);
#53=CIRCLE('',#289,0.4);
#54=CIRCLE('',#291,0.4);
#55=CIRCLE('',#293,0.4);
#56=CIRCLE('',#295,0.4);
#57=CYLINDRICAL_SURFACE('',#273,0.165);
#58=CYLINDRICAL_SURFACE('',#276,2.425);
#59=CYLINDRICAL_SURFACE('',#288,0.4);
#60=CYLINDRICAL_SURFACE('',#290,0.4);
#61=CYLINDRICAL_SURFACE('',#292,0.4);
#62=CYLINDRICAL_SURFACE('',#294,0.4);
#63=FACE_OUTER_BOUND('',#76,.T.);
#64=FACE_OUTER_BOUND('',#77,.T.);
#65=FACE_OUTER_BOUND('',#78,.T.);
#66=FACE_OUTER_BOUND('',#79,.T.);
#67=FACE_OUTER_BOUND('',#89,.T.);
#68=FACE_OUTER_BOUND('',#90,.T.);
#69=FACE_OUTER_BOUND('',#91,.T.);
#70=FACE_OUTER_BOUND('',#92,.T.);
#71=FACE_OUTER_BOUND('',#93,.T.);
#72=FACE_OUTER_BOUND('',#103,.T.);
#73=FACE_OUTER_BOUND('',#104,.T.);
#74=FACE_OUTER_BOUND('',#105,.T.);
#75=FACE_OUTER_BOUND('',#106,.T.);
#76=EDGE_LOOP('',(#188,#189,#190,#191));
#77=EDGE_LOOP('',(#192,#193,#194,#195));
#78=EDGE_LOOP('',(#196,#197,#198,#199));
#79=EDGE_LOOP('',(#200));
#80=EDGE_LOOP('',(#201,#202));
#81=EDGE_LOOP('',(#203));
#82=EDGE_LOOP('',(#204));
#83=EDGE_LOOP('',(#205));
#84=EDGE_LOOP('',(#206));
#85=EDGE_LOOP('',(#207));
#86=EDGE_LOOP('',(#208));
#87=EDGE_LOOP('',(#209));
#88=EDGE_LOOP('',(#210));
#89=EDGE_LOOP('',(#211,#212,#213,#214));
#90=EDGE_LOOP('',(#215,#216,#217,#218));
#91=EDGE_LOOP('',(#219,#220,#221,#222));
#92=EDGE_LOOP('',(#223,#224,#225,#226));
#93=EDGE_LOOP('',(#227));
#94=EDGE_LOOP('',(#228,#229));
#95=EDGE_LOOP('',(#230));
#96=EDGE_LOOP('',(#231));
#97=EDGE_LOOP('',(#232));
#98=EDGE_LOOP('',(#233));
#99=EDGE_LOOP('',(#234));
#100=EDGE_LOOP('',(#235));
#101=EDGE_LOOP('',(#236));
#102=EDGE_LOOP('',(#237));
#103=EDGE_LOOP('',(#238,#239,#240,#241));
#104=EDGE_LOOP('',(#242,#243,#244,#245));
#105=EDGE_LOOP('',(#246,#247,#248,#249));
#106=EDGE_LOOP('',(#250,#251,#252,#253));
#107=LINE('',#378,#120);
#108=LINE('',#380,#121);
#109=LINE('',#382,#122);
#110=LINE('',#383,#123);
#111=LINE('',#391,#124);
#112=LINE('',#412,#125);
#113=LINE('',#416,#126);
#114=LINE('',#420,#127);
#115=LINE('',#424,#128);
#116=LINE('',#453,#129);
#117=LINE('',#472,#130);
#118=LINE('',#491,#131);
#119=LINE('',#510,#132);
#120=VECTOR('',#305,1.);
#121=VECTOR('',#306,1.);
#122=VECTOR('',#307,1.);
#123=VECTOR('',#308,1.);
#124=VECTOR('',#319,2.425);
#125=VECTOR('',#342,0.4);
#126=VECTOR('',#347,0.4);
#127=VECTOR('',#352,0.4);
#128=VECTOR('',#357,0.4);
#129=VECTOR('',#370,0.75);
#130=VECTOR('',#371,0.75);
#131=VECTOR('',#372,0.75);
#132=VECTOR('',#373,0.75);
#133=VERTEX_POINT('',#376);
#134=VERTEX_POINT('',#377);
#135=VERTEX_POINT('',#379);
#136=VERTEX_POINT('',#381);
#137=VERTEX_POINT('',#388);
#138=VERTEX_POINT('',#390);
#139=VERTEX_POINT('',#394);
#140=VERTEX_POINT('',#396);
#141=VERTEX_POINT('',#398);
#142=VERTEX_POINT('',#400);
#143=VERTEX_POINT('',#402);
#144=VERTEX_POINT('',#404);
#145=VERTEX_POINT('',#406);
#146=VERTEX_POINT('',#408);
#147=VERTEX_POINT('',#411);
#148=VERTEX_POINT('',#415);
#149=VERTEX_POINT('',#419);
#150=VERTEX_POINT('',#423);
#151=VERTEX_POINT('',#427);
#152=VERTEX_POINT('',#429);
#153=VERTEX_POINT('',#431);
#154=VERTEX_POINT('',#433);
#155=EDGE_CURVE('',#133,#134,#107,.T.);
#156=EDGE_CURVE('',#133,#135,#108,.T.);
#157=EDGE_CURVE('',#136,#135,#109,.T.);
#158=EDGE_CURVE('',#134,#136,#110,.T.);
#159=EDGE_CURVE('',#134,#133,#45,.T.);
#160=EDGE_CURVE('',#135,#136,#46,.T.);
#161=EDGE_CURVE('',#137,#137,#47,.T.);
#162=EDGE_CURVE('',#137,#138,#111,.T.);
#163=EDGE_CURVE('',#138,#138,#48,.T.);
#164=EDGE_CURVE('',#139,#139,#19,.T.);
#165=EDGE_CURVE('',#140,#140,#20,.T.);
#166=EDGE_CURVE('',#141,#141,#21,.T.);
#167=EDGE_CURVE('',#142,#142,#22,.T.);
#168=EDGE_CURVE('',#143,#143,#49,.T.);
#169=EDGE_CURVE('',#144,#144,#50,.T.);
#170=EDGE_CURVE('',#145,#145,#51,.T.);
#171=EDGE_CURVE('',#146,#146,#52,.T.);
#172=EDGE_CURVE('',#143,#147,#112,.T.);
#173=EDGE_CURVE('',#147,#147,#53,.T.);
#174=EDGE_CURVE('',#146,#148,#113,.T.);
#175=EDGE_CURVE('',#148,#148,#54,.T.);
#176=EDGE_CURVE('',#145,#149,#114,.T.);
#177=EDGE_CURVE('',#149,#149,#55,.T.);
#178=EDGE_CURVE('',#144,#150,#115,.T.);
#179=EDGE_CURVE('',#150,#150,#56,.T.);
#180=EDGE_CURVE('',#151,#151,#23,.T.);
#181=EDGE_CURVE('',#152,#152,#24,.T.);
#182=EDGE_CURVE('',#153,#153,#25,.T.);
#183=EDGE_CURVE('',#154,#154,#26,.T.);
#184=EDGE_CURVE('',#140,#152,#116,.T.);
#185=EDGE_CURVE('',#142,#154,#117,.T.);
#186=EDGE_CURVE('',#139,#151,#118,.T.);
#187=EDGE_CURVE('',#141,#153,#119,.T.);
#188=ORIENTED_EDGE('',*,*,#155,.F.);
#189=ORIENTED_EDGE('',*,*,#156,.T.);
#190=ORIENTED_EDGE('',*,*,#157,.F.);
#191=ORIENTED_EDGE('',*,*,#158,.F.);
#192=ORIENTED_EDGE('',*,*,#159,.F.);
#193=ORIENTED_EDGE('',*,*,#158,.T.);
#194=ORIENTED_EDGE('',*,*,#160,.F.);
#195=ORIENTED_EDGE('',*,*,#156,.F.);
#196=ORIENTED_EDGE('',*,*,#161,.F.);
#197=ORIENTED_EDGE('',*,*,#162,.T.);
#198=ORIENTED_EDGE('',*,*,#163,.F.);
#199=ORIENTED_EDGE('',*,*,#162,.F.);
#200=ORIENTED_EDGE('',*,*,#161,.T.);
#201=ORIENTED_EDGE('',*,*,#157,.T.);
#202=ORIENTED_EDGE('',*,*,#160,.T.);
#203=ORIENTED_EDGE('',*,*,#164,.T.);
#204=ORIENTED_EDGE('',*,*,#165,.T.);
#205=ORIENTED_EDGE('',*,*,#166,.T.);
#206=ORIENTED_EDGE('',*,*,#167,.T.);
#207=ORIENTED_EDGE('',*,*,#168,.T.);
#208=ORIENTED_EDGE('',*,*,#169,.T.);
#209=ORIENTED_EDGE('',*,*,#170,.T.);
#210=ORIENTED_EDGE('',*,*,#171,.T.);
#211=ORIENTED_EDGE('',*,*,#168,.F.);
#212=ORIENTED_EDGE('',*,*,#172,.T.);
#213=ORIENTED_EDGE('',*,*,#173,.T.);
#214=ORIENTED_EDGE('',*,*,#172,.F.);
#215=ORIENTED_EDGE('',*,*,#171,.F.);
#216=ORIENTED_EDGE('',*,*,#174,.T.);
#217=ORIENTED_EDGE('',*,*,#175,.T.);
#218=ORIENTED_EDGE('',*,*,#174,.F.);
#219=ORIENTED_EDGE('',*,*,#170,.F.);
#220=ORIENTED_EDGE('',*,*,#176,.T.);
#221=ORIENTED_EDGE('',*,*,#177,.T.);
#222=ORIENTED_EDGE('',*,*,#176,.F.);
#223=ORIENTED_EDGE('',*,*,#169,.F.);
#224=ORIENTED_EDGE('',*,*,#178,.T.);
#225=ORIENTED_EDGE('',*,*,#179,.T.);
#226=ORIENTED_EDGE('',*,*,#178,.F.);
#227=ORIENTED_EDGE('',*,*,#163,.T.);
#228=ORIENTED_EDGE('',*,*,#155,.T.);
#229=ORIENTED_EDGE('',*,*,#159,.T.);
#230=ORIENTED_EDGE('',*,*,#175,.F.);
#231=ORIENTED_EDGE('',*,*,#179,.F.);
#232=ORIENTED_EDGE('',*,*,#173,.F.);
#233=ORIENTED_EDGE('',*,*,#177,.F.);
#234=ORIENTED_EDGE('',*,*,#180,.T.);
#235=ORIENTED_EDGE('',*,*,#181,.T.);
#236=ORIENTED_EDGE('',*,*,#182,.T.);
#237=ORIENTED_EDGE('',*,*,#183,.T.);
#238=ORIENTED_EDGE('',*,*,#165,.F.);
#239=ORIENTED_EDGE('',*,*,#184,.T.);
#240=ORIENTED_EDGE('',*,*,#181,.F.);
#241=ORIENTED_EDGE('',*,*,#184,.F.);
#242=ORIENTED_EDGE('',*,*,#167,.F.);
#243=ORIENTED_EDGE('',*,*,#185,.T.);
#244=ORIENTED_EDGE('',*,*,#183,.F.);
#245=ORIENTED_EDGE('',*,*,#185,.F.);
#246=ORIENTED_EDGE('',*,*,#164,.F.);
#247=ORIENTED_EDGE('',*,*,#186,.T.);
#248=ORIENTED_EDGE('',*,*,#180,.F.);
#249=ORIENTED_EDGE('',*,*,#186,.F.);
#250=ORIENTED_EDGE('',*,*,#166,.F.);
#251=ORIENTED_EDGE('',*,*,#187,.T.);
#252=ORIENTED_EDGE('',*,*,#182,.F.);
#253=ORIENTED_EDGE('',*,*,#187,.F.);
#254=PLANE('',#272);
#255=PLANE('',#279);
#256=PLANE('',#296);
#257=ADVANCED_FACE('',(#63),#254,.F.);
#258=ADVANCED_FACE('',(#64),#57,.F.);
#259=ADVANCED_FACE('',(#65),#58,.T.);
#260=ADVANCED_FACE('',(#66,#27,#28,#29,#30,#31,#32,#33,#34,#35),#255,.F.);
#261=ADVANCED_FACE('',(#67),#59,.F.);
#262=ADVANCED_FACE('',(#68),#60,.F.);
#263=ADVANCED_FACE('',(#69),#61,.F.);
#264=ADVANCED_FACE('',(#70),#62,.F.);
#265=ADVANCED_FACE('',(#71,#36,#37,#38,#39,#40,#41,#42,#43,#44),#256,.T.);
#266=ADVANCED_FACE('',(#72),#15,.T.);
#267=ADVANCED_FACE('',(#73),#16,.T.);
#268=ADVANCED_FACE('',(#74),#17,.T.);
#269=ADVANCED_FACE('',(#75),#18,.T.);
#270=CLOSED_SHELL('',(#257,#258,#259,#260,#261,#262,#263,#264,#265,#266,
#267,#268,#269));
#271=AXIS2_PLACEMENT_3D('',#374,#301,#302);
#272=AXIS2_PLACEMENT_3D('',#375,#303,#304);
#273=AXIS2_PLACEMENT_3D('',#384,#309,#310);
#274=AXIS2_PLACEMENT_3D('',#385,#311,#312);
#275=AXIS2_PLACEMENT_3D('',#386,#313,#314);
#276=AXIS2_PLACEMENT_3D('',#387,#315,#316);
#277=AXIS2_PLACEMENT_3D('',#389,#317,#318);
#278=AXIS2_PLACEMENT_3D('',#392,#320,#321);
#279=AXIS2_PLACEMENT_3D('',#393,#322,#323);
#280=AXIS2_PLACEMENT_3D('',#395,#324,#325);
#281=AXIS2_PLACEMENT_3D('',#397,#326,#327);
#282=AXIS2_PLACEMENT_3D('',#399,#328,#329);
#283=AXIS2_PLACEMENT_3D('',#401,#330,#331);
#284=AXIS2_PLACEMENT_3D('',#403,#332,#333);
#285=AXIS2_PLACEMENT_3D('',#405,#334,#335);
#286=AXIS2_PLACEMENT_3D('',#407,#336,#337);
#287=AXIS2_PLACEMENT_3D('',#409,#338,#339);
#288=AXIS2_PLACEMENT_3D('',#410,#340,#341);
#289=AXIS2_PLACEMENT_3D('',#413,#343,#344);
#290=AXIS2_PLACEMENT_3D('',#414,#345,#346);
#291=AXIS2_PLACEMENT_3D('',#417,#348,#349);
#292=AXIS2_PLACEMENT_3D('',#418,#350,#351);
#293=AXIS2_PLACEMENT_3D('',#421,#353,#354);
#294=AXIS2_PLACEMENT_3D('',#422,#355,#356);
#295=AXIS2_PLACEMENT_3D('',#425,#358,#359);
#296=AXIS2_PLACEMENT_3D('',#426,#360,#361);
#297=AXIS2_PLACEMENT_3D('',#428,#362,#363);
#298=AXIS2_PLACEMENT_3D('',#430,#364,#365);
#299=AXIS2_PLACEMENT_3D('',#432,#366,#367);
#300=AXIS2_PLACEMENT_3D('',#434,#368,#369);
#301=DIRECTION('axis',(0.,0.,1.));
#302=DIRECTION('refdir',(1.,0.,0.));
#303=DIRECTION('center_axis',(0.341464837391338,0.,0.939894549843389));
#304=DIRECTION('ref_axis',(0.939894549843389,0.,-0.341464837391338));
#305=DIRECTION('',(0.939894549843389,3.48265645222758E-15,-0.341464837391338));
#306=DIRECTION('',(0.,1.,0.));
#307=DIRECTION('',(-0.939894549843389,-3.48265645222758E-15,0.341464837391338));
#308=DIRECTION('',(0.,1.,0.));
#309=DIRECTION('center_axis',(0.,1.,0.));
#310=DIRECTION('ref_axis',(-0.341464837391337,0.,-0.939894549843389));
#311=DIRECTION('center_axis',(-4.02631028431374E-15,1.,-8.83401764825312E-16));
#312=DIRECTION('ref_axis',(1.,0.,0.));
#313=DIRECTION('center_axis',(4.02631028431374E-15,-1.,8.83401764825312E-16));
#314=DIRECTION('ref_axis',(1.,0.,0.));
#315=DIRECTION('center_axis',(-4.44089209850063E-15,1.,-8.88178419700125E-16));
#316=DIRECTION('ref_axis',(1.,4.44089209850063E-15,-3.68222620560918E-31));
#317=DIRECTION('center_axis',(-4.02631028431374E-15,1.,-8.83401764825312E-16));
#318=DIRECTION('ref_axis',(1.,4.02631028431374E-15,0.));
#319=DIRECTION('',(4.44089209850063E-15,-1.,8.88178419700125E-16));
#320=DIRECTION('center_axis',(4.02631028431374E-15,-1.,8.83401764825312E-16));
#321=DIRECTION('ref_axis',(1.,4.02631028431374E-15,0.));
#322=DIRECTION('center_axis',(4.02631028431374E-15,-1.,8.83401764825312E-16));
#323=DIRECTION('ref_axis',(1.,4.02631028431374E-15,1.97215226305254E-31));
#324=DIRECTION('center_axis',(4.02631028431374E-15,-1.,8.83401764825312E-16));
#325=DIRECTION('ref_axis',(-1.22464679914759E-16,-6.45947941600091E-15,
-1.));
#326=DIRECTION('center_axis',(4.02631028431374E-15,-1.,8.83401764825312E-16));
#327=DIRECTION('ref_axis',(1.,-4.84460956200069E-15,-2.22044604924974E-16));
#328=DIRECTION('center_axis',(4.02631028431374E-15,-1.,8.83401764825312E-16));
#329=DIRECTION('ref_axis',(-1.,4.84460956200069E-15,2.22044604924974E-16));
#330=DIRECTION('center_axis',(4.02631028431374E-15,-1.,8.83401764825312E-16));
#331=DIRECTION('ref_axis',(2.34570694964466E-29,6.45947941600091E-15,1.));
#332=DIRECTION('center_axis',(4.02631028431374E-15,-1.,8.83401764825312E-16));
#333=DIRECTION('ref_axis',(1.,4.03717463500057E-15,-8.77225620372261E-33));
#334=DIRECTION('center_axis',(4.02631028431374E-15,-1.,8.83401764825312E-16));
#335=DIRECTION('ref_axis',(1.,4.03717463500057E-15,-1.75445124074452E-32));
#336=DIRECTION('center_axis',(4.02631028431374E-15,-1.,8.83401764825312E-16));
#337=DIRECTION('ref_axis',(1.,4.03717463500057E-15,-1.75445124074452E-32));
#338=DIRECTION('center_axis',(4.02631028431374E-15,-1.,8.83401764825312E-16));
#339=DIRECTION('ref_axis',(1.,4.03717463500057E-15,-8.77225620372261E-33));
#340=DIRECTION('center_axis',(-3.99680288865056E-15,1.,-8.88178419700125E-16));
#341=DIRECTION('ref_axis',(1.,3.99680288865056E-15,2.62078320495882E-32));
#342=DIRECTION('',(3.99680288865056E-15,-1.,8.88178419700125E-16));
#343=DIRECTION('center_axis',(4.02631028431374E-15,-1.,8.83401764825312E-16));
#344=DIRECTION('ref_axis',(1.,4.02631028431374E-15,0.));
#345=DIRECTION('center_axis',(-3.99680288865056E-15,1.,-8.88178419700125E-16));
#346=DIRECTION('ref_axis',(1.,3.99680288865056E-15,2.62078320495882E-32));
#347=DIRECTION('',(3.99680288865056E-15,-1.,8.88178419700125E-16));
#348=DIRECTION('center_axis',(4.02631028431374E-15,-1.,8.83401764825312E-16));
#349=DIRECTION('ref_axis',(1.,4.02631028431374E-15,0.));
#350=DIRECTION('center_axis',(-3.99680288865056E-15,1.,0.));
#351=DIRECTION('ref_axis',(1.,3.99680288865056E-15,0.));
#352=DIRECTION('',(3.99680288865056E-15,-1.,0.));
#353=DIRECTION('center_axis',(4.02631028431374E-15,-1.,8.83401764825312E-16));
#354=DIRECTION('ref_axis',(1.,4.02631028431374E-15,0.));
#355=DIRECTION('center_axis',(-3.99680288865056E-15,1.,0.));
#356=DIRECTION('ref_axis',(1.,3.99680288865056E-15,0.));
#357=DIRECTION('',(3.99680288865056E-15,-1.,0.));
#358=DIRECTION('center_axis',(4.02631028431374E-15,-1.,8.83401764825312E-16));
#359=DIRECTION('ref_axis',(1.,4.02631028431374E-15,0.));
#360=DIRECTION('center_axis',(4.02631028431374E-15,-1.,8.83401764825312E-16));
#361=DIRECTION('ref_axis',(1.,4.02631028431374E-15,1.97215226305254E-31));
#362=DIRECTION('center_axis',(-4.02631028431374E-15,1.,-8.83401764825312E-16));
#363=DIRECTION('ref_axis',(-1.22464679914759E-16,-6.45947941600091E-15,
-1.));
#364=DIRECTION('center_axis',(-4.02631028431374E-15,1.,-8.83401764825312E-16));
#365=DIRECTION('ref_axis',(1.,-4.84460956200069E-15,-2.22044604924974E-16));
#366=DIRECTION('center_axis',(-4.02631028431374E-15,1.,-8.83401764825312E-16));
#367=DIRECTION('ref_axis',(-1.,4.84460956200069E-15,2.22044604924974E-16));
#368=DIRECTION('center_axis',(-4.02631028431374E-15,1.,-8.83401764825312E-16));
#369=DIRECTION('ref_axis',(2.34570694964466E-29,6.45947941600091E-15,1.));
#370=DIRECTION('',(3.99680288865056E-15,-1.,8.88178419700125E-16));
#371=DIRECTION('',(3.99680288865056E-15,-1.,8.88178419700125E-16));
#372=DIRECTION('',(3.99680288865056E-15,-1.,0.));
#373=DIRECTION('',(3.99680288865056E-15,-1.,8.88178419700125E-16));
#374=CARTESIAN_POINT('',(0.,0.,0.));
#375=CARTESIAN_POINT('Origin',(-0.0721697610712449,-9.455,-3.45162033297338));
#376=CARTESIAN_POINT('',(-0.0721697610712449,-9.455,-3.45162033297338));
#377=CARTESIAN_POINT('',(0.15058224703745,-9.455,-3.53254640945728));
#378=CARTESIAN_POINT('',(-0.0164817590440089,-9.455,-3.47185185209438));
#379=CARTESIAN_POINT('',(-0.0721697610712449,-8.955,-3.45162033297338));
#380=CARTESIAN_POINT('',(-0.0721697610712449,-9.455,-3.45162033297338));
#381=CARTESIAN_POINT('',(0.15058224703745,-8.955,-3.53254640945728));
#382=CARTESIAN_POINT('',(-0.0164817590440106,-8.955,-3.47185185209438));
#383=CARTESIAN_POINT('',(0.15058224703745,-9.455,-3.53254640945728));
#384=CARTESIAN_POINT('Origin',(-1.44391443246406E-13,-9.455,-3.60000000000003));
#385=CARTESIAN_POINT('Origin',(-1.44391443246406E-13,-9.455,-3.60000000000003));
#386=CARTESIAN_POINT('Origin',(-1.44391443246406E-13,-8.955,-3.60000000000003));
#387=CARTESIAN_POINT('Origin',(8.1801682955532E-15,-9.455,-3.6));
#388=CARTESIAN_POINT('',(-2.42499999999999,-8.95500000000001,-3.6));
#389=CARTESIAN_POINT('Origin',(5.95972224630289E-15,-8.955,-3.6));
#390=CARTESIAN_POINT('',(-2.42499999999999,-9.45500000000001,-3.6));
#391=CARTESIAN_POINT('',(-2.42499999999999,-9.45500000000001,-3.6));
#392=CARTESIAN_POINT('Origin',(8.1801682955532E-15,-9.455,-3.6));
#393=CARTESIAN_POINT('Origin',(6.39617183423003E-15,-8.955,-3.6));
#394=CARTESIAN_POINT('',(-1.76887944797226E-14,-8.955,-4.14999996572734));
#395=CARTESIAN_POINT('Origin',(-1.3405861019301E-14,-8.95500000000001,-4.89999996572734));
#396=CARTESIAN_POINT('',(0.549999965727344,-8.955,-3.60000000000003));
#397=CARTESIAN_POINT('Origin',(1.29999996572735,-8.95500000000001,-3.60000000000003));
#398=CARTESIAN_POINT('',(-0.549999965727332,-8.95499999999998,-3.59999999999998));
#399=CARTESIAN_POINT('Origin',(-1.29999996572733,-8.95499999999999,-3.59999999999998));
#400=CARTESIAN_POINT('',(2.99849726124224E-14,-8.95499999999998,-3.05000003427266));
#401=CARTESIAN_POINT('Origin',(3.44516030927162E-14,-8.95499999999999,-2.30000003427267));
#402=CARTESIAN_POINT('',(0.766453774433438,-8.95499999999999,-2.43354627921077));
#403=CARTESIAN_POINT('Origin',(1.16645377443344,-8.95499999999999,-2.43354627921077));
#404=CARTESIAN_POINT('',(-1.56645377443343,-8.95500000000001,-4.76645372078924));
#405=CARTESIAN_POINT('Origin',(-1.16645377443343,-8.95500000000001,-4.76645372078924));
#406=CARTESIAN_POINT('',(0.766453720789241,-8.95499999999999,-4.76645377443343));
#407=CARTESIAN_POINT('Origin',(1.16645372078924,-8.95499999999999,-4.76645377443343));
#408=CARTESIAN_POINT('',(-1.56645372078923,-8.955,-2.43354622556657));
#409=CARTESIAN_POINT('Origin',(-1.16645372078923,-8.955,-2.43354622556657));
#410=CARTESIAN_POINT('Origin',(1.16645377443344,-9.45499999999999,-2.43354627921077));
#411=CARTESIAN_POINT('',(0.76645377443344,-9.45499999999999,-2.43354627921077));
#412=CARTESIAN_POINT('',(0.76645377443344,-9.45499999999999,-2.43354627921077));
#413=CARTESIAN_POINT('Origin',(1.16645377443344,-9.45499999999999,-2.43354627921077));
#414=CARTESIAN_POINT('Origin',(-1.16645372078923,-9.455,-2.43354622556657));
#415=CARTESIAN_POINT('',(-1.56645372078923,-9.45500000000001,-2.43354622556657));
#416=CARTESIAN_POINT('',(-1.56645372078923,-9.455,-2.43354622556657));
#417=CARTESIAN_POINT('Origin',(-1.16645372078923,-9.455,-2.43354622556657));
#418=CARTESIAN_POINT('Origin',(1.16645372078924,-9.45499999999999,-4.76645377443343));
#419=CARTESIAN_POINT('',(0.766453720789243,-9.455,-4.76645377443343));
#420=CARTESIAN_POINT('',(0.766453720789243,-9.455,-4.76645377443343));
#421=CARTESIAN_POINT('Origin',(1.16645372078924,-9.45499999999999,-4.76645377443343));
#422=CARTESIAN_POINT('Origin',(-1.16645377443342,-9.45500000000001,-4.76645372078924));
#423=CARTESIAN_POINT('',(-1.56645377443342,-9.45500000000001,-4.76645372078924));
#424=CARTESIAN_POINT('',(-1.56645377443342,-9.45500000000001,-4.76645372078924));
#425=CARTESIAN_POINT('Origin',(-1.16645377443342,-9.45500000000001,-4.76645372078924));
#426=CARTESIAN_POINT('Origin',(8.50559558101783E-15,-9.455,-3.6));
#427=CARTESIAN_POINT('',(-1.56903930353972E-14,-9.45500000000001,-4.14999996572734));
#428=CARTESIAN_POINT('Origin',(-1.58281658003014E-14,-9.45500000000001,
-4.89999996572734));
#429=CARTESIAN_POINT('',(0.549999965727346,-9.45500000000002,-3.60000000000003));
#430=CARTESIAN_POINT('Origin',(1.29999996572735,-9.45500000000001,-3.60000000000003));
#431=CARTESIAN_POINT('',(-0.54999996572733,-9.45499999999999,-3.59999999999998));
#432=CARTESIAN_POINT('Origin',(-1.29999996572733,-9.45499999999999,-3.59999999999998));
#433=CARTESIAN_POINT('',(3.19833740567478E-14,-9.455,-3.05000003427266));
#434=CARTESIAN_POINT('Origin',(3.20292983117159E-14,-9.45499999999999,-2.30000003427266));
#435=CARTESIAN_POINT('Ctrl Pts',(0.549999965727346,-9.45500000000002,-3.60000000000003));
#436=CARTESIAN_POINT('Ctrl Pts',(0.549999965727346,-9.45500000000002,-3.22500000000003));
#437=CARTESIAN_POINT('Ctrl Pts',(1.29999996572735,-9.45500000000001,-3.22500000000003));
#438=CARTESIAN_POINT('Ctrl Pts',(2.04999996572735,-9.45500000000001,-3.22500000000003));
#439=CARTESIAN_POINT('Ctrl Pts',(2.04999996572735,-9.45500000000001,-3.60000000000003));
#440=CARTESIAN_POINT('Ctrl Pts',(2.04999996572735,-9.45500000000001,-3.97500000000003));
#441=CARTESIAN_POINT('Ctrl Pts',(1.29999996572735,-9.45500000000001,-3.97500000000003));
#442=CARTESIAN_POINT('Ctrl Pts',(0.549999965727346,-9.45500000000002,-3.97500000000003));
#443=CARTESIAN_POINT('Ctrl Pts',(0.549999965727346,-9.45500000000002,-3.60000000000003));
#444=CARTESIAN_POINT('Ctrl Pts',(0.549999965727344,-8.955,-3.60000000000003));
#445=CARTESIAN_POINT('Ctrl Pts',(0.549999965727344,-8.955,-3.22500000000003));
#446=CARTESIAN_POINT('Ctrl Pts',(1.29999996572734,-8.955,-3.22500000000003));
#447=CARTESIAN_POINT('Ctrl Pts',(2.04999996572734,-8.95499999999999,-3.22500000000003));
#448=CARTESIAN_POINT('Ctrl Pts',(2.04999996572734,-8.95499999999999,-3.60000000000003));
#449=CARTESIAN_POINT('Ctrl Pts',(2.04999996572734,-8.95499999999999,-3.97500000000003));
#450=CARTESIAN_POINT('Ctrl Pts',(1.29999996572734,-8.955,-3.97500000000003));
#451=CARTESIAN_POINT('Ctrl Pts',(0.549999965727344,-8.955,-3.97500000000003));
#452=CARTESIAN_POINT('Ctrl Pts',(0.549999965727344,-8.955,-3.60000000000003));
#453=CARTESIAN_POINT('',(0.549999965727346,-9.455,-3.60000000000003));
#454=CARTESIAN_POINT('Ctrl Pts',(3.20292983117158E-14,-9.455,-3.05000003427266));
#455=CARTESIAN_POINT('Ctrl Pts',(-0.374999999999968,-9.455,-3.05000003427266));
#456=CARTESIAN_POINT('Ctrl Pts',(-0.374999999999968,-9.455,-2.30000003427266));
#457=CARTESIAN_POINT('Ctrl Pts',(-0.374999999999968,-9.455,-1.55000003427266));
#458=CARTESIAN_POINT('Ctrl Pts',(3.20292983117158E-14,-9.455,-1.55000003427266));
#459=CARTESIAN_POINT('Ctrl Pts',(0.375000000000032,-9.45499999999999,-1.55000003427266));
#460=CARTESIAN_POINT('Ctrl Pts',(0.375000000000032,-9.45499999999999,-2.30000003427266));
#461=CARTESIAN_POINT('Ctrl Pts',(0.375000000000032,-9.45499999999999,-3.05000003427266));
#462=CARTESIAN_POINT('Ctrl Pts',(3.20292983117158E-14,-9.455,-3.05000003427266));
#463=CARTESIAN_POINT('Ctrl Pts',(3.00308968673905E-14,-8.95499999999998,
-3.05000003427266));
#464=CARTESIAN_POINT('Ctrl Pts',(-0.37499999999997,-8.95499999999999,-3.05000003427266));
#465=CARTESIAN_POINT('Ctrl Pts',(-0.37499999999997,-8.95499999999999,-2.30000003427266));
#466=CARTESIAN_POINT('Ctrl Pts',(-0.37499999999997,-8.95499999999999,-1.55000003427266));
#467=CARTESIAN_POINT('Ctrl Pts',(3.00308968673905E-14,-8.95499999999998,
-1.55000003427266));
#468=CARTESIAN_POINT('Ctrl Pts',(0.37500000000003,-8.95499999999998,-1.55000003427266));
#469=CARTESIAN_POINT('Ctrl Pts',(0.37500000000003,-8.95499999999998,-2.30000003427266));
#470=CARTESIAN_POINT('Ctrl Pts',(0.37500000000003,-8.95499999999998,-3.05000003427266));
#471=CARTESIAN_POINT('Ctrl Pts',(3.00308968673905E-14,-8.95499999999998,
-3.05000003427266));
#472=CARTESIAN_POINT('',(3.19833740567478E-14,-9.455,-3.05000003427266));
#473=CARTESIAN_POINT('Ctrl Pts',(-1.57363172903653E-14,-9.45500000000001,
-4.14999996572734));
#474=CARTESIAN_POINT('Ctrl Pts',(0.374999999999984,-9.45500000000001,-4.14999996572734));
#475=CARTESIAN_POINT('Ctrl Pts',(0.374999999999984,-9.45500000000001,-4.89999996572734));
#476=CARTESIAN_POINT('Ctrl Pts',(0.374999999999984,-9.45500000000001,-5.64999996572734));
#477=CARTESIAN_POINT('Ctrl Pts',(-1.59200143102374E-14,-9.45500000000001,
-5.64999996572734));
#478=CARTESIAN_POINT('Ctrl Pts',(-0.375000000000016,-9.45500000000001,-5.64999996572734));
#479=CARTESIAN_POINT('Ctrl Pts',(-0.375000000000016,-9.45500000000001,-4.89999996572734));
#480=CARTESIAN_POINT('Ctrl Pts',(-0.375000000000016,-9.45500000000001,-4.14999996572734));
#481=CARTESIAN_POINT('Ctrl Pts',(-1.57363172903653E-14,-9.45500000000001,
-4.14999996572734));
#482=CARTESIAN_POINT('Ctrl Pts',(-1.77347187346906E-14,-8.955,-4.14999996572734));
#483=CARTESIAN_POINT('Ctrl Pts',(0.374999999999982,-8.955,-4.14999996572734));
#484=CARTESIAN_POINT('Ctrl Pts',(0.374999999999982,-8.955,-4.89999996572734));
#485=CARTESIAN_POINT('Ctrl Pts',(0.374999999999982,-8.955,-5.64999996572734));
#486=CARTESIAN_POINT('Ctrl Pts',(-1.79184157545627E-14,-8.955,-5.64999996572734));
#487=CARTESIAN_POINT('Ctrl Pts',(-0.375000000000018,-8.955,-5.64999996572734));
#488=CARTESIAN_POINT('Ctrl Pts',(-0.375000000000018,-8.955,-4.89999996572734));
#489=CARTESIAN_POINT('Ctrl Pts',(-0.375000000000018,-8.955,-4.14999996572734));
#490=CARTESIAN_POINT('Ctrl Pts',(-1.77347187346906E-14,-8.955,-4.14999996572734));
#491=CARTESIAN_POINT('',(-1.56903930353973E-14,-9.455,-4.14999996572734));
#492=CARTESIAN_POINT('Ctrl Pts',(-0.54999996572733,-9.45499999999999,-3.59999999999998));
#493=CARTESIAN_POINT('Ctrl Pts',(-0.54999996572733,-9.45499999999999,-3.97499999999998));
#494=CARTESIAN_POINT('Ctrl Pts',(-1.29999996572733,-9.455,-3.97499999999998));
#495=CARTESIAN_POINT('Ctrl Pts',(-2.04999996572733,-9.455,-3.97499999999998));
#496=CARTESIAN_POINT('Ctrl Pts',(-2.04999996572733,-9.455,-3.59999999999998));
#497=CARTESIAN_POINT('Ctrl Pts',(-2.04999996572733,-9.455,-3.22499999999998));
#498=CARTESIAN_POINT('Ctrl Pts',(-1.29999996572733,-9.455,-3.22499999999998));
#499=CARTESIAN_POINT('Ctrl Pts',(-0.54999996572733,-9.45499999999999,-3.22499999999998));
#500=CARTESIAN_POINT('Ctrl Pts',(-0.54999996572733,-9.45499999999999,-3.59999999999998));
#501=CARTESIAN_POINT('Ctrl Pts',(-0.549999965727332,-8.95499999999998,-3.59999999999998));
#502=CARTESIAN_POINT('Ctrl Pts',(-0.549999965727332,-8.95499999999998,-3.97499999999998));
#503=CARTESIAN_POINT('Ctrl Pts',(-1.29999996572733,-8.95499999999998,-3.97499999999998));
#504=CARTESIAN_POINT('Ctrl Pts',(-2.04999996572733,-8.95499999999999,-3.97499999999998));
#505=CARTESIAN_POINT('Ctrl Pts',(-2.04999996572733,-8.95499999999999,-3.59999999999998));
#506=CARTESIAN_POINT('Ctrl Pts',(-2.04999996572733,-8.95499999999999,-3.22499999999998));
#507=CARTESIAN_POINT('Ctrl Pts',(-1.29999996572733,-8.95499999999998,-3.22499999999998));
#508=CARTESIAN_POINT('Ctrl Pts',(-0.549999965727332,-8.95499999999998,-3.22499999999998));
#509=CARTESIAN_POINT('Ctrl Pts',(-0.549999965727332,-8.95499999999998,-3.59999999999998));
#510=CARTESIAN_POINT('',(-0.54999996572733,-9.455,-3.59999999999998));
#511=UNCERTAINTY_MEASURE_WITH_UNIT(LENGTH_MEASURE(0.001),#515,
'DISTANCE_ACCURACY_VALUE',
'Maximum model space distance between geometric entities at asserted c
onnectivities');
#512=UNCERTAINTY_MEASURE_WITH_UNIT(LENGTH_MEASURE(0.001),#515,
'DISTANCE_ACCURACY_VALUE',
'Maximum model space distance between geometric entities at asserted c
onnectivities');
#513=(
GEOMETRIC_REPRESENTATION_CONTEXT(3)
GLOBAL_UNCERTAINTY_ASSIGNED_CONTEXT((#511))
GLOBAL_UNIT_ASSIGNED_CONTEXT((#515,#516,#517))
REPRESENTATION_CONTEXT('','3D')
);
#514=(
GEOMETRIC_REPRESENTATION_CONTEXT(3)
GLOBAL_UNCERTAINTY_ASSIGNED_CONTEXT((#512))
GLOBAL_UNIT_ASSIGNED_CONTEXT((#515,#516,#517))
REPRESENTATION_CONTEXT('','3D')
);
#515=(
LENGTH_UNIT()
NAMED_UNIT(*)
SI_UNIT(.CENTI.,.METRE.)
);
#516=(
NAMED_UNIT(*)
PLANE_ANGLE_UNIT()
SI_UNIT($,.RADIAN.)
);
#517=(
NAMED_UNIT(*)
SI_UNIT($,.STERADIAN.)
SOLID_ANGLE_UNIT()
);
#518=SHAPE_DEFINITION_REPRESENTATION(#519,#520);
#519=PRODUCT_DEFINITION_SHAPE('',$,#522);
#520=SHAPE_REPRESENTATION('',(#271),#513);
#521=PRODUCT_DEFINITION_CONTEXT('part definition',#526,'design');
#522=PRODUCT_DEFINITION('Wheels','Wheels v5',#523,#521);
#523=PRODUCT_DEFINITION_FORMATION('',$,#528);
#524=PRODUCT_RELATED_PRODUCT_CATEGORY('Wheels v5','Wheels v5',(#528));
#525=APPLICATION_PROTOCOL_DEFINITION('international standard',
'automotive_design',2009,#526);
#526=APPLICATION_CONTEXT(
'Core Data for Automotive Mechanical Design Process');
#527=PRODUCT_CONTEXT('part definition',#526,'mechanical');
#528=PRODUCT('Wheels','Wheels v5',$,(#527));
#529=PRESENTATION_STYLE_ASSIGNMENT((#530));
#530=SURFACE_STYLE_USAGE(.BOTH.,#531);
#531=SURFACE_SIDE_STYLE('',(#532));
#532=SURFACE_STYLE_FILL_AREA(#533);
#533=FILL_AREA_STYLE('Steel - Satin',(#534));
#534=FILL_AREA_STYLE_COLOUR('Steel - Satin',#535);
#535=COLOUR_RGB('Steel - Satin',0.627450980392157,0.627450980392157,0.627450980392157);
ENDSEC;
END-ISO-10303-21;
